<?xml version="1.0" encoding="UTF-8"?>
<svg version="1.1" xmlns="http://www.w3.org/2000/svg" width="414" height="365">
<path d="M0 0 C3.25919394 3.16866078 5.02872656 6.80547043 6.5625 11.078125 C8.00701452 14.36840808 10.09407652 16.89324393 12.34765625 19.67578125 C16.75493665 26.1389359 15.46394903 37.2111998 14.6875 44.640625 C13.55683233 48.45775906 12.04618914 51.45018759 9.6875 54.640625 C9.089375 55.47335938 8.49125 56.30609375 7.875 57.1640625 C5.46230317 59.89557998 3.02762319 61.4776916 -0.0625 63.390625 C-3.91825482 65.97018617 -3.91825482 65.97018617 -6.0625 69.875 C-6.0625 72.23573639 -5.77746582 74.32782087 -5.3125 76.640625 C-5.14049297 78.1608636 -4.97349934 79.68168127 -4.8125 81.203125 C-4.6475 82.3375 -4.4825 83.471875 -4.3125 84.640625 C-3.508125 84.7334375 -3.508125 84.7334375 -2.6875 84.828125 C-0.3125 85.640625 -0.3125 85.640625 2.03125 87.94921875 C6.73307753 91.95185519 12.71879852 92.96027177 18.5625 94.515625 C53.95054909 104.49583946 53.95054909 104.49583946 63.6875 120.640625 C65.16013254 124.31146765 66.16474327 128.07338586 67.1875 131.890625 C70.96670478 145.12707353 75.87805944 157.78957203 81.02734375 170.54199219 C81.3273378 171.29251358 81.62733185 172.04303497 81.93641663 172.81629944 C82.49860015 174.22134024 83.06732155 175.62379138 83.64402771 177.02293396 C85.3281975 181.23677159 86.76265887 185.07798034 86.6875 189.640625 C85.70837646 190.44822266 84.72925293 191.25582031 83.72045898 192.08789062 C82.71958252 192.93029297 81.71870605 193.77269531 80.6875 194.640625 C80.49039503 197.64713277 80.60872261 199.60284227 81.16015625 202.484375 C81.27725449 203.24240417 81.39435272 204.00043335 81.51499939 204.78143311 C81.76809218 206.40116906 82.0355984 208.01870696 82.31616211 209.63391113 C83.04036792 213.81836989 83.65386569 218.01946233 84.28515625 222.21875 C84.47520737 223.45150665 84.47520737 223.45150665 84.6690979 224.70916748 C85.64354527 231.08951397 86.36076754 237.44115747 86.6875 243.890625 C86.74043213 244.67244141 86.79336426 245.45425781 86.84790039 246.25976562 C87.09236238 252.28671951 86.12607824 258.63578056 82.22924805 263.4375 C71.34115941 274.13330848 54.08850012 274.88223359 39.8203125 275.89453125 C38.37707643 276.00098215 36.93387021 276.10783839 35.49069214 276.21507263 C32.46689149 276.4383425 29.44281439 276.65720856 26.41845703 276.87280273 C22.63314455 277.14291046 18.8486647 277.4230939 15.06432533 277.70646954 C-0.71891856 278.88424033 -16.47071121 279.91421479 -32.29830933 280.27198792 C-40.02505171 280.4733822 -47.31790413 281.47181218 -54.87890625 282.99609375 C-62.74394033 284.47246533 -69.10816987 284.24279006 -76.3125 280.640625 C-77.625 278.578125 -77.625 278.578125 -78.3125 276.640625 C-79.3025 275.980625 -80.2925 275.320625 -81.3125 274.640625 C-81.3125 273.650625 -81.3125 272.660625 -81.3125 271.640625 C-82.5190625 271.269375 -82.5190625 271.269375 -83.75 270.890625 C-84.595625 270.478125 -85.44125 270.065625 -86.3125 269.640625 C-86.64583333 268.30729167 -86.97916667 266.97395833 -87.3125 265.640625 C-89.76954762 264.40772299 -89.76954762 264.40772299 -92.3125 263.640625 C-93.3125 262.640625 -93.3125 262.640625 -93.375 260.078125 C-93.354375 259.27375 -93.33375 258.469375 -93.3125 257.640625 C-90.3425 256.650625 -87.3725 255.660625 -84.3125 254.640625 C-83.9825 252.990625 -83.6525 251.340625 -83.3125 249.640625 C-75.15343785 246.58097669 -66.86711348 245.12062561 -58.3125 243.640625 C-59.54295169 236.9315832 -59.54295169 236.9315832 -61.4375 230.390625 C-62.40715144 227.34314904 -62.46385508 224.81908161 -62.3125 221.640625 C-63.055 221.805625 -63.7975 221.970625 -64.5625 222.140625 C-67.3125 222.640625 -67.3125 222.640625 -71.3125 222.640625 C-72.89319681 223.96322286 -72.89319681 223.96322286 -74.3125 225.765625 C-78.77923718 230.53338142 -84.29091163 233.23727175 -90.3125 235.640625 C-91.3025 235.640625 -92.2925 235.640625 -93.3125 235.640625 C-93.1578125 237.31125 -93.1578125 237.31125 -93 239.015625 C-93 245.61235546 -96.15633933 251.3679151 -100.625 256.078125 C-109.24763091 261.09128251 -117.2411136 261.0763224 -126.94897461 261.04467773 C-128.53159567 261.05038668 -130.11421261 261.05735297 -131.69682312 261.06547546 C-135.97786866 261.08336386 -140.25870874 261.08224669 -144.53978038 261.07653308 C-148.12070637 261.07343504 -151.70159326 261.07954049 -155.28251368 261.08557183 C-163.73354179 261.09960118 -172.18446878 261.09806894 -180.63549805 261.08666992 C-189.33906862 261.07518932 -198.04233102 261.08926696 -206.74586099 261.1160664 C-214.23317183 261.13825334 -221.72038613 261.14485406 -229.20772749 261.13898998 C-233.6731308 261.13562648 -238.13833658 261.1379951 -242.60371208 261.15524101 C-246.80391367 261.17075602 -251.00366016 261.16670448 -255.20384407 261.14793587 C-256.74006186 261.14426259 -258.27631371 261.14732151 -259.8125 261.15782166 C-277.37727867 261.26866092 -277.37727867 261.26866092 -284.17864895 254.89063168 C-289.25515004 249.43887125 -290.79506846 244.21119929 -290.64468384 236.83966064 C-289.99285907 230.56238156 -287.9601535 224.64591659 -286.04296875 218.6640625 C-285.6004177 217.24444359 -285.15922524 215.82440051 -284.71931458 214.40396118 C-283.56534604 210.69100934 -282.39277411 206.98419784 -281.21612549 203.27838135 C-280.02748165 199.52259911 -278.85753998 195.76100383 -277.68554688 192 C-275.25208293 184.20573213 -272.79986978 176.41787787 -270.3125 168.640625 C-269.87715439 167.25692719 -269.87715439 167.25692719 -269.43301392 165.84527588 C-269.04912003 164.64883453 -269.04912003 164.64883453 -268.6574707 163.42822266 C-268.34106377 162.43201401 -268.34106377 162.43201401 -268.01826477 161.41567993 C-265.97189164 156.26888758 -262.00647529 152.70312121 -257.046875 150.38671875 C-250.67729994 148.6487347 -243.87848461 148.78985192 -237.3125 148.640625 C-237.5290625 148.0321875 -237.745625 147.42375 -237.96875 146.796875 C-242.03281515 134.00259583 -241.69711886 120.98868614 -236.3125 108.640625 C-234.55797457 105.41249536 -232.57245827 102.53246077 -230.3125 99.640625 C-229.87292969 99.02703125 -229.43335938 98.4134375 -228.98046875 97.78125 C-222.39905982 89.20834846 -211.82030218 83.5993162 -201.3125 81.640625 C-189.12150012 80.35763747 -176.12535882 80.38482623 -166.09765625 88.4140625 C-165.44667969 88.98382813 -164.79570312 89.55359375 -164.125 90.140625 C-162.33917999 91.72661207 -162.33917999 91.72661207 -160.3125 92.640625 C-157.63786206 92.34794576 -155.47461129 91.56829079 -152.96875 90.59765625 C-147.58644068 88.65844186 -141.69944182 87.69579386 -136.3125 89.828125 C-134.32977604 91.62496859 -132.88334775 93.48517198 -131.3125 95.640625 C-131.5290625 94.81820312 -131.745625 93.99578125 -131.96875 93.1484375 C-133.71032412 86.16601533 -134.75099861 79.83525042 -134.3125 72.640625 C-132.0625 71.890625 -132.0625 71.890625 -129.3125 71.640625 C-125.20116559 74.70191038 -124.21153871 78.3816452 -123.09375 83.16796875 C-122.91053696 83.90462769 -122.72732391 84.64128662 -122.53855896 85.40026855 C-121.94896995 87.78965971 -121.38051608 90.18352283 -120.8125 92.578125 C-120.40907299 94.22878991 -120.00485436 95.87926155 -119.59985352 97.52954102 C-117.53969953 106.00625391 -115.69476763 114.47248319 -114.25 123.078125 C-112.56754668 132.95684089 -109.11105228 141.91778871 -105.31738281 151.16015625 C-103.73677613 155.06175097 -102.27525819 159.0061768 -100.8125 162.953125 C-100.32325578 164.26184557 -99.83371056 165.57045369 -99.34375 166.87890625 C-99.0034375 167.79027344 -98.663125 168.70164063 -98.3125 169.640625 C-97.9825 169.640625 -97.6525 169.640625 -97.3125 169.640625 C-97.10157715 168.46145508 -96.8906543 167.28228516 -96.67333984 166.06738281 C-95.87552039 161.63563587 -95.05328627 157.20869461 -94.22412109 152.78271484 C-93.87058285 150.87733994 -93.52341606 148.97077012 -93.18310547 147.06298828 C-88.25845433 119.52249054 -88.25845433 119.52249054 -77.61035156 111.16552734 C-73.16204115 108.21353554 -68.46819991 105.81582309 -63.6875 103.453125 C-53.13335629 98.84091903 -53.13335629 98.84091903 -44.75 91.390625 C-44.275625 90.813125 -43.80125 90.235625 -43.3125 89.640625 C-40.625 89.390625 -40.625 89.390625 -38.3125 89.640625 C-38.3125 87.660625 -38.3125 85.680625 -38.3125 83.640625 C-39.17875 83.723125 -40.045 83.805625 -40.9375 83.890625 C-48.00874407 83.36682914 -51.91127989 78.18868933 -56.48046875 73.25 C-61.65569472 65.87888924 -61.74552147 58.53944178 -61.75195312 49.79882812 C-61.871545 44.35945976 -62.38200272 41.69695741 -66.3125 37.640625 C-69.6445627 31.16299564 -70.2972185 23.79431526 -69.3125 16.640625 C-67.2693639 11.20185426 -63.90105034 7.88987922 -59.6875 4.078125 C-59.0594043 3.50602295 -58.43130859 2.9339209 -57.78417969 2.34448242 C-41.50999529 -12.17230738 -17.52153749 -13.98896945 0 0 Z M-155.3125 97.640625 C-153.3325 100.610625 -153.3325 100.610625 -151.3125 103.640625 C-150.3225 102.980625 -149.3325 102.320625 -148.3125 101.640625 C-146.3228005 101.25048784 -144.32230131 100.90859851 -142.3125 100.640625 C-142.9725 99.650625 -143.6325 98.660625 -144.3125 97.640625 C-146.97903905 97.27602047 -146.97903905 97.27602047 -149.9375 97.453125 C-150.94039062 97.48019531 -151.94328125 97.50726563 -152.9765625 97.53515625 C-154.13285156 97.58736328 -154.13285156 97.58736328 -155.3125 97.640625 Z M-143.3125 131.640625 C-144.6325 137.580625 -145.9525 143.520625 -147.3125 149.640625 C-142.6925 149.640625 -138.0725 149.640625 -133.3125 149.640625 C-133.56 146.299375 -133.56 146.299375 -133.8125 142.890625 C-133.9053125 141.63765625 -133.998125 140.3846875 -134.09375 139.09375 C-135.2627569 134.50783903 -135.2627569 134.50783903 -143.3125 131.640625 Z M-74.625 256.140625 C-76.22794922 256.27984375 -76.22794922 256.27984375 -77.86328125 256.421875 C-78.67152344 256.4940625 -79.47976562 256.56625 -80.3125 256.640625 C-76.26648061 259.33797126 -73.05826236 259.07281352 -68.3125 258.640625 C-65.38169326 257.77409086 -65.38169326 257.77409086 -63.3125 256.640625 C-63.3125 256.310625 -63.3125 255.980625 -63.3125 255.640625 C-67.11535642 255.58418186 -70.83712996 255.80762544 -74.625 256.140625 Z " fill="#3D1E09" transform="translate(306.3125,55.359375)"/>
<path d="M0 0 C1.90258789 0.2644043 1.90258789 0.2644043 4 1 C4.93920898 2.62036133 4.93920898 2.62036133 5.55859375 4.76953125 C5.79690918 5.58373535 6.03522461 6.39793945 6.28076172 7.23681641 C7.61703691 12.37054437 8.86744359 17.51911027 10.0625 22.6875 C10.5716991 24.87949309 11.0833409 27.07092046 11.59765625 29.26171875 C11.93035522 30.69970825 11.93035522 30.69970825 12.26977539 32.16674805 C12.98181032 35.0874383 12.98181032 35.0874383 14.11108398 38.21020508 C15.02317113 41.07272082 15.05839451 42.24817427 14 45 C12.53515625 43.73046875 11.0703125 42.4609375 9.60546875 41.19140625 C7.89287029 39.79128769 7.89287029 39.79128769 5 39 C5.54269531 39.39832031 6.08539063 39.79664063 6.64453125 40.20703125 C7.35996094 40.73683594 8.07539063 41.26664063 8.8125 41.8125 C9.87404297 42.59560547 9.87404297 42.59560547 10.95703125 43.39453125 C14.85214809 46.45551217 16.29977982 48.0455152 16.96484375 53.08203125 C17.85332678 58.63436676 19.46274823 63.48967813 21.5625 68.6875 C22.27927784 70.51928407 22.99539709 72.35132595 23.7109375 74.18359375 C24.08444336 75.13089355 24.45794922 76.07819336 24.84277344 77.05419922 C34.3798708 101.33154454 34.3798708 101.33154454 38 113.5 C38.19553467 114.15129883 38.39106934 114.80259766 38.5925293 115.47363281 C39.8738901 119.97396467 40.50750536 124.36234219 41 129 C41.66 128.01 42.32 127.02 43 126 C47.85677023 129.61674379 51.48439487 133.64314469 55 138.5625 C55.40984131 139.11639404 55.81968262 139.67028809 56.24194336 140.2409668 C57.98587087 142.76197729 58.98595357 144.54783857 59.08203125 147.640625 C57.58912129 150.89592324 55.62674474 152.17479864 52.6875 154.1875 C51.72199219 154.86167969 50.75648438 155.53585937 49.76171875 156.23046875 C45.53016923 158.94177275 43.10728513 160.28373806 38 160 C38.05800781 160.845625 38.11601562 161.69125 38.17578125 162.5625 C38.43197547 169.00395461 38.56523763 174.04314131 34.62890625 179.34765625 C29.92440718 184.11984595 24.69864014 186.83435949 18.00293446 187.13422108 C16.2340337 187.1406313 16.2340337 187.1406313 14.42939758 187.14717102 C13.77079449 187.15084771 13.1121914 187.1545244 12.43363065 187.1583125 C10.22828813 187.1693193 8.02299279 187.17318806 5.81762695 187.17700195 C4.23559928 187.18326891 2.65357307 187.18991591 1.07154846 187.19691467 C-4.12286356 187.217931 -9.3172758 187.22831522 -14.51171875 187.23828125 C-16.30199511 187.2423298 -18.09227133 187.24644675 -19.88254738 187.25063133 C-28.29471067 187.26967816 -36.70686521 187.28390991 -45.11904591 187.2922433 C-54.81945575 187.3020123 -64.5196372 187.3283251 -74.21996659 187.36874419 C-81.72416171 187.3989361 -89.22829148 187.41371512 -96.73254615 187.41702431 C-101.21145093 187.4193714 -105.69011158 187.42828726 -110.16895103 187.45348549 C-114.38547618 187.47682498 -118.60159746 187.48097599 -122.81817055 187.47072411 C-124.36084972 187.47023005 -125.90354918 187.47651195 -127.44616699 187.49028015 C-145.05454941 187.63857336 -145.05454941 187.63857336 -151.86590099 181.2498827 C-156.94299952 175.79874142 -158.48256334 170.57032333 -158.33218384 163.19903564 C-157.68035907 156.92175656 -155.6476535 151.00529159 -153.73046875 145.0234375 C-153.2879177 143.60381859 -152.84672524 142.18377551 -152.40681458 140.76333618 C-151.25284604 137.05038434 -150.08027411 133.34357284 -148.90362549 129.63775635 C-147.71498165 125.88197411 -146.54503998 122.12037883 -145.37304688 118.359375 C-142.93958293 110.56510713 -140.48736978 102.77725287 -138 95 C-137.70976959 94.07753479 -137.41953918 93.15506958 -137.12051392 92.20465088 C-136.86458466 91.40702332 -136.6086554 90.60939575 -136.3449707 89.78759766 C-136.13403275 89.12345856 -135.92309479 88.45931946 -135.70576477 87.77505493 C-133.47742688 82.17060665 -129.45371116 79.35964312 -124.27172852 76.87524414 C-117.77202969 74.37106141 -109.67845373 73.94270783 -103 76 C-99.22273411 79.40007056 -97.31260908 83.35333799 -95.14013672 87.84814453 C-93.05813849 91.77763755 -90.34152551 95.25578936 -87.6875 98.8125 C-86.57618677 100.3306143 -85.46682295 101.85015747 -84.359375 103.37109375 C-83.80572266 104.13019043 -83.25207031 104.88928711 -82.68164062 105.67138672 C-80.97969304 108.0281196 -79.30556194 110.4021544 -77.640625 112.78515625 C-77.10219971 113.55561279 -76.56377441 114.32606934 -76.0090332 115.11987305 C-74.98875138 116.5839624 -73.9714801 118.05015604 -72.95776367 119.51879883 C-68.97718301 125.93522696 -68.97718301 125.93522696 -62.78125 129.42578125 C-61.65203125 129.36970703 -61.65203125 129.36970703 -60.5 129.3125 C-59.7471875 129.28800781 -58.994375 129.26351562 -58.21875 129.23828125 C-55.03922636 128.91468462 -55.03922636 128.91468462 -52 128 C-50.9333728 126.2501842 -50.9333728 126.2501842 -50 124 C-48.61043739 121.95297905 -47.20025128 119.94051571 -45.75 117.9375 C-45.31816406 117.33607178 -44.88632813 116.73464355 -44.44140625 116.11499023 C-41.8484407 112.51652421 -39.2224799 108.94365995 -36.578125 105.3828125 C-35.99216553 104.59181152 -35.40620605 103.80081055 -34.80249023 102.98583984 C-33.59796426 101.36642702 -32.38648369 99.75216459 -31.16821289 98.14306641 C-28.33072734 94.35642601 -25.70957762 90.63213385 -23.48046875 86.453125 C-18.13672486 76.64387578 -18.13672486 76.64387578 -13.91943359 75.37304688 C-8.85610842 74.72771064 -4.02040908 75.21374104 1 76 C0.7834375 75.14728516 0.7834375 75.14728516 0.5625 74.27734375 C-0.61545505 69.37737795 -1.21427527 65.0354688 -1 60 C-1.70125 59.938125 -2.4025 59.87625 -3.125 59.8125 C-6.90294815 58.744819 -9.71987502 57.20285114 -12 54 C-13.26344209 48.33099028 -11.95566562 41.40826049 -10 36 C-9.34 35.67 -8.68 35.34 -8 35 C-9.32 34.67 -10.64 34.34 -12 34 C-12 37.3 -12 40.6 -12 44 C-12.66 44 -13.32 44 -14 44 C-15.7479503 38.75614911 -16.19392201 34.52677733 -16 29 C-12.7 29 -9.4 29 -6 29 C-8.0706428 25.56480483 -8.0706428 25.56480483 -11 23 C-14.7174474 22.46744433 -18.26996191 22.64724684 -22 23 C-22.99 21.02 -22.99 21.02 -24 19 C-9.87610619 15.33824975 -9.87610619 15.33824975 -4.1875 18.625 C-1.44431562 21.60331447 1 24.81027269 1 29 C1.99 29 2.98 29 4 29 C3.566875 27.11667969 3.566875 27.11667969 3.125 25.1953125 C-0.57027365 8.69667315 -0.57027365 8.69667315 0 0 Z " fill="#C7B188" transform="translate(174,129)"/>
<path d="M0 0 C0.33 0.66 0.66 1.32 1 2 C2.66373167 2.67395784 4.33139506 3.3381996 6 4 C9.06731711 5.60557917 12.06184417 7.33619256 15.0625 9.0625 C15.96572998 9.57981689 16.86895996 10.09713379 17.79956055 10.63012695 C26.33460365 15.55250656 34.74393886 20.67502658 43.15136719 25.81079102 C50.30371687 30.17838309 57.47167308 34.48325656 64.81298828 38.52661133 C71.68758432 42.3333343 78.43180616 46.3625631 85.1875 50.375 C85.78611847 50.73046906 86.38473694 51.08593811 87.00149536 51.45217896 C97.67825979 57.7946931 97.67825979 57.7946931 100.73901367 59.74780273 C102.88270669 61.26864291 102.88270669 61.26864291 105.0078125 60.51171875 C107.63227947 58.52021146 109.68588743 56.27774683 111.875 53.8125 C112.85203419 52.72321295 113.82994082 51.63470796 114.80859375 50.546875 C115.32534668 49.97001953 115.84209961 49.39316406 116.37451172 48.79882812 C119.18962281 45.68351745 122.06596145 42.62571157 124.9375 39.5625 C134.70629696 29.11535138 144.39788029 18.60057021 154 8 C154.99 8.33 155.98 8.66 157 9 C157.984375 11.109375 157.984375 11.109375 158.75 13.75 C159.14445312 15.04164063 159.14445312 15.04164063 159.546875 16.359375 C160.05438849 19.31695362 159.92621563 21.15118525 159 24 C157.6171875 25.73828125 157.6171875 25.73828125 155.875 27.3125 C152.62299722 30.2872583 149.78289999 33.5135808 146.90039062 36.83911133 C143.79315723 40.37227201 140.5507527 43.77478529 137.3125 47.1875 C132.01202025 52.79550154 126.73947491 58.42576822 121.51782227 64.10717773 C116.85952817 69.16882827 112.14863651 74.18069574 107.42553711 79.18188477 C102.84927754 84.04357374 98.44119654 89.0036539 94 94 C125.68 94.495 125.68 94.495 158 95 C158 95.33 158 95.66 158 96 C137.03330337 96.0935241 116.06664123 96.16401879 95.09977818 96.20724869 C85.36405519 96.22785639 75.62846196 96.2559427 65.89282227 96.30175781 C57.405259 96.34168047 48.91778974 96.36744584 40.43013519 96.37635398 C35.93774173 96.38155954 31.44561714 96.39375704 26.95331001 96.42292023 C22.72044137 96.45017521 18.48795103 96.45842474 14.25500298 96.45243073 C12.70586971 96.45352647 11.15672311 96.46142028 9.60766602 96.4768219 C-8.04992172 96.64369543 -8.04992172 96.64369543 -14.86565304 90.24982071 C-19.93761797 84.8052503 -21.48672866 79.57438496 -21.3366394 72.21017456 C-20.67166163 65.86898361 -18.60196004 59.88973556 -16.66015625 53.84765625 C-16.21275407 52.41607889 -15.76677003 50.98405763 -15.3221283 49.55162048 C-14.15740229 45.81212596 -12.97439953 42.078676 -11.78704834 38.34631348 C-10.57975668 34.54086834 -9.38892446 30.73028552 -8.19726562 26.91992188 C-6.85785705 22.63863925 -5.51696189 18.35789774 -4.16261292 14.08131409 C-3.95749084 13.43266891 -3.75236877 12.78402374 -3.54103088 12.11572266 C-2.98809404 10.36841428 -2.43386155 8.62151605 -1.87953186 6.87464905 C-1.18093524 4.59136609 -0.54585265 2.32338131 0 0 Z " fill="#645351" transform="translate(37,220)"/>
<path d="M0 0 C6.05652128 4.25940321 12.69323979 9.74599952 15.71484375 16.61328125 C16.70484375 16.11828125 16.70484375 16.11828125 17.71484375 15.61328125 C20.01097131 25.02330403 20.01097131 25.02330403 19.71484375 29.61328125 C20.37484375 29.61328125 21.03484375 29.61328125 21.71484375 29.61328125 C21.71484375 26.31328125 21.71484375 23.01328125 21.71484375 19.61328125 C23.36484375 19.94328125 25.01484375 20.27328125 26.71484375 20.61328125 C25.22984375 21.10828125 25.22984375 21.10828125 23.71484375 21.61328125 C23.33374452 24.6144377 23.00177598 27.60277003 22.71484375 30.61328125 C22.57755859 31.81404297 22.57755859 31.81404297 22.4375 33.0390625 C22.09473067 37.41415193 22.09473067 37.41415193 23.9140625 41.25390625 C26.75643251 43.74545478 29.04072403 44.69475132 32.71484375 45.61328125 C33.70484375 53.53328125 33.70484375 53.53328125 34.71484375 61.61328125 C34.05484375 61.61328125 33.39484375 61.61328125 32.71484375 61.61328125 C32.37664209 60.03098065 32.04448436 58.4473875 31.71484375 56.86328125 C31.52921875 55.9815625 31.34359375 55.09984375 31.15234375 54.19140625 C30.71484375 51.61328125 30.71484375 51.61328125 30.71484375 47.61328125 C29.93109375 47.30390625 29.14734375 46.99453125 28.33984375 46.67578125 C25.71484375 45.61328125 25.71484375 45.61328125 23.71484375 44.61328125 C23.53050781 45.53367188 23.34617187 46.4540625 23.15625 47.40234375 C20.83707946 57.52423472 16.82643239 65.23550381 10.71484375 73.61328125 C10.19567383 74.33 9.67650391 75.04671875 9.14160156 75.78515625 C6.24222699 79.77540141 3.31345771 83.74250591 0.36328125 87.6953125 C-2.10199095 91.00327158 -4.53242449 94.33271613 -6.93359375 97.6875 C-7.51786133 98.50379883 -8.10212891 99.32009766 -8.70410156 100.16113281 C-9.81306582 101.71444451 -10.91933915 103.26968213 -12.02246094 104.82714844 C-19.26111203 114.94824248 -19.26111203 114.94824248 -24.16796875 116.02734375 C-27.74155318 116.36353462 -30.26099023 116.35421098 -33.234375 114.203125 C-35.45357327 111.78852563 -37.3645184 109.27367008 -39.28515625 106.61328125 C-39.71666992 106.01773438 -40.14818359 105.4221875 -40.59277344 104.80859375 C-43.11762049 101.308597 -45.5995242 97.78084325 -48.05859375 94.234375 C-50.78923979 90.3024791 -53.58634352 86.42361241 -56.40795898 82.55664062 C-67.97020033 66.69259731 -76.47430113 54.00316879 -74.28515625 33.61328125 C-72.66347426 25.17503769 -69.55558737 18.35730898 -64.28515625 11.61328125 C-63.84558594 10.9996875 -63.40601562 10.38609375 -62.953125 9.75390625 C-48.46961407 -9.11222327 -19.50878675 -11.83866546 0 0 Z " fill="#3F1F0A" transform="translate(140.28515625,143.38671875)"/>
<path d="M0 0 C0.69879231 4.62165451 1.39231185 9.24406105 2.08129883 13.8671875 C2.31558578 15.43445323 2.5512248 17.00151754 2.78833008 18.56835938 C4.53732932 30.13467991 6.08611978 41.65756449 6.25 53.375 C6.28867187 55.05722656 6.28867187 55.05722656 6.328125 56.7734375 C5.82817296 61.68963255 3.86542733 65.73392724 0.1875 69.0625 C-9.02275563 76.54091269 -21.65705656 77.93632292 -33.078125 78.68359375 C-33.9537912 78.74338913 -34.8294574 78.80318451 -35.73165894 78.86479187 C-38.57093666 79.05828996 -41.41045829 79.24791892 -44.25 79.4375 C-48.16937806 79.70286311 -52.0886143 79.97027602 -56.0078125 80.23828125 C-56.96891937 80.30380188 -57.93002625 80.36932251 -58.92025757 80.43682861 C-66.32673589 80.9450796 -73.72574189 81.5204529 -81.125 82.125 C-89.35440294 82.79587165 -97.5602279 83.18496939 -105.8125 83.4375 C-114.72240577 83.71243663 -123.39355043 84.53845267 -132.19067383 85.98413086 C-145.14728831 88.10573548 -145.14728831 88.10573548 -150 85 C-149.34 85 -148.68 85 -148 85 C-148 84.34 -148 83.68 -148 83 C-148.721875 82.896875 -149.44375 82.79375 -150.1875 82.6875 C-153.24491993 81.94013068 -155.38329635 80.71954811 -158 79 C-154.85681547 77.42840774 -152.07066611 78.95981601 -148.875 79.9375 C-148.21628906 80.13279297 -147.55757812 80.32808594 -146.87890625 80.52929688 C-145.25066448 81.01304986 -143.62506818 81.50569075 -142 82 C-142 81.34 -142 80.68 -142 80 C-143.258125 79.9175 -144.51625 79.835 -145.8125 79.75 C-151.47600849 79.12072128 -156.88888645 77.53371441 -162 75 C-162.66 74.01 -163.32 73.02 -164 72 C-157.9490696 73.16554807 -151.96533774 74.45343096 -146 76 C-146 75.34 -146 74.68 -146 74 C-147.7634375 73.9071875 -147.7634375 73.9071875 -149.5625 73.8125 C-156.66707832 73.06105422 -163.31133204 70.38818052 -170 68 C-170 66.68 -170 65.36 -170 64 C-164.56881904 62.89159572 -161.25389551 63.46006511 -156 65 C-149.81474675 65.80726651 -145.3779915 64.68405917 -139.84765625 61.875 C-138 61 -138 61 -136 61 C-136 60.34 -136 59.68 -136 59 C-136.96486328 59.10828125 -136.96486328 59.10828125 -137.94921875 59.21875 C-145.31967507 59.97577262 -152.59465929 60.10595877 -160 60 C-160.33 58.68 -160.66 57.36 -161 56 C-154.74858261 53.76601 -148.56542614 52.82675737 -142 52 C-141.28585938 51.88914062 -140.57171875 51.77828125 -139.8359375 51.6640625 C-133.89110209 51.13282189 -129.06639599 54.00576143 -123.85546875 56.58984375 C-113.91331659 61.49971643 -102.17345019 57.61330001 -92 54.8125 C-90.83227051 54.50151367 -89.66454102 54.19052734 -88.46142578 53.87011719 C-82.10991193 52.16632728 -75.78921721 50.36997048 -69.48046875 48.51489258 C-36.82477219 38.9280956 -36.82477219 38.9280956 -23 43 C-24.81414051 41.18585949 -27.54959054 41.3649546 -30 41 C-30.98850692 37.98214387 -31.96407193 34.96025033 -32.9375 31.9375 C-33.21529297 31.08994141 -33.49308594 30.24238281 -33.77929688 29.36914062 C-35.31866841 24.56555956 -36.46212651 20.01788303 -37 15 C-36.319375 14.8040625 -35.63875 14.608125 -34.9375 14.40625 C-24.58586162 11.21265944 -15.24313201 6.31434681 -5.7109375 1.25390625 C-3 0 -3 0 0 0 Z " fill="#FCBDA4" transform="translate(385,250)"/>
<path d="M0 0 C2.65712959 0.93740538 4.92774209 2.20078099 7.3659668 3.6159668 C8.39866699 4.21296387 9.43136719 4.80996094 10.49536133 5.42504883 C11.60379395 6.07328613 12.71222656 6.72152344 13.85424805 7.3894043 C15.01021494 8.06132363 16.16630398 8.73303285 17.32250977 9.40454102 C32.05905636 17.98145164 46.73632811 26.68112334 61.16674805 35.7644043 C59.6407139 38.98070571 58.06874034 41.05209729 55.47924805 43.5144043 C52.03163896 46.86798768 48.83213737 50.34626431 45.7097168 54.00268555 C45.20053711 54.58405273 44.69135742 55.16541992 44.16674805 55.7644043 C43.61414055 56.54939804 43.61414055 56.54939804 43.05036926 57.35025024 C40.12111296 59.54942895 37.00597842 59.18158516 33.48583984 59.15258789 C32.70500031 59.15784485 31.92416077 59.16310181 31.11965942 59.16851807 C28.53489245 59.18173549 25.95074021 59.17297148 23.3659668 59.1628418 C21.56858705 59.16486265 19.77120811 59.16777418 17.97383118 59.17153931 C14.20350349 59.17596552 10.43338887 59.16952436 6.66308594 59.15551758 C1.83767229 59.13846234 -2.98723942 59.14824165 -7.81263447 59.16623497 C-11.52648165 59.1770963 -15.24021069 59.17361506 -18.95406151 59.16585159 C-20.73260749 59.16385416 -22.5111643 59.16629278 -24.28969765 59.17329025 C-26.78147215 59.18093932 -29.27244508 59.16925104 -31.76416016 59.15258789 C-32.49528519 59.15866058 -33.22641022 59.16473328 -33.97969055 59.17098999 C-39.48023245 59.10310601 -43.55004338 57.82319493 -47.66137695 54.1159668 C-51.91317482 48.95306939 -54.44809522 44.80663089 -54.36108398 37.83544922 C-53.26794736 33.54632897 -49.16422528 31.79453588 -45.58325195 29.6394043 C-43.83471969 28.51877968 -42.08736145 27.39632151 -40.34106445 26.2722168 C-38.97836426 25.41225098 -38.97836426 25.41225098 -37.58813477 24.53491211 C-33.11743411 21.66168266 -28.79496241 18.58450541 -24.45825195 15.5144043 C-22.79451828 14.35117342 -21.13046386 13.18840116 -19.46606445 12.02612305 C-16.56525977 9.99317718 -13.68518432 7.93669373 -10.82543945 5.84643555 C-9.92897705 5.20013184 -9.92897705 5.20013184 -9.0144043 4.54077148 C-7.45808032 3.41703596 -5.9108712 2.28070582 -4.36450195 1.14331055 C-1.83325195 -0.2355957 -1.83325195 -0.2355957 0 0 Z " fill="#C8B289" transform="translate(69.833251953125,256.235595703125)"/>
<path d="M0 0 C5.12889224 9.34857176 7.31573648 20.97359543 10.25 31.1875 C10.50813477 32.0839624 10.76626953 32.9804248 11.03222656 33.90405273 C12.17406891 37.91532514 13.28445915 41.88564009 14 46 C15.98 46 17.96 46 20 46 C20 46.33 20 46.66 20 47 C18.35 47 16.7 47 15 47 C15.05800781 47.845625 15.11601562 48.69125 15.17578125 49.5625 C15.48015585 57.21534711 15.22709738 62.24478966 10 68 C3.21746374 74.47885829 -5.11480319 73.64541013 -13.875 73.48828125 C-15.41055138 73.47894186 -16.94611778 73.47183107 -18.48168945 73.46684265 C-22.49991863 73.44786088 -26.5172269 73.3988389 -30.53509521 73.34332275 C-34.64436388 73.29193782 -38.75378309 73.26928781 -42.86328125 73.24414062 C-50.90927416 73.19070924 -58.95452214 73.10550646 -67 73 C-66.05952693 71.72550079 -65.1161731 70.45312707 -64.17163086 69.18164062 C-63.38410683 68.11846619 -63.38410683 68.11846619 -62.58067322 67.03381348 C-60.44904883 64.29110464 -58.06172877 61.90854557 -55.5625 59.5 C-51.72258922 55.75355561 -48.09255887 51.9084261 -44.609375 47.828125 C-42.46489498 45.39216226 -40.15756548 43.14517137 -37.84204102 40.87329102 C-36.06818863 39.06934544 -34.41036475 37.21134396 -32.76171875 35.29296875 C-29.05284331 31.02751703 -25.20275257 26.91222404 -21.3125 22.8125 C-15.21633693 16.36385466 -9.16635087 9.87618955 -3.16015625 3.34375 C-1 1 -1 1 0 0 Z " fill="#B39D7D" transform="translate(197,242)"/>
<path d="M0 0 C3.795033 1.47050459 4.62759724 3.74323464 6.55859375 7.265625 C10.21733514 13.64127915 13.41614076 17.0926532 19.74609375 20.890625 C23.44998491 23.62828368 24.68589406 25.84750259 26.62109375 30.015625 C26.62109375 31.335625 26.62109375 32.655625 26.62109375 34.015625 C27.61109375 34.015625 28.60109375 34.015625 29.62109375 34.015625 C29.93046875 33.37625 30.23984375 32.736875 30.55859375 32.078125 C31.62109375 30.015625 31.62109375 30.015625 32.62109375 29.015625 C35.05859375 28.765625 35.05859375 28.765625 37.62109375 29.015625 C39.84918084 32.35775563 39.8995999 33.97191278 39.29296875 37.87890625 C38.08356156 41.72510237 35.70545047 44.47730272 32.62109375 47.015625 C29.74609375 47.953125 29.74609375 47.953125 27.62109375 48.015625 C27.62109375 48.675625 27.62109375 49.335625 27.62109375 50.015625 C28.61109375 50.015625 29.60109375 50.015625 30.62109375 50.015625 C31.28109375 55.955625 31.94109375 61.895625 32.62109375 68.015625 C33.28109375 68.015625 33.94109375 68.015625 34.62109375 68.015625 C34.62109375 68.675625 34.62109375 69.335625 34.62109375 70.015625 C11.81981389 77.17892919 11.81981389 77.17892919 2.62109375 76.015625 C2.30859375 73.75390625 2.30859375 73.75390625 2.62109375 71.015625 C4.74609375 69.05859375 4.74609375 69.05859375 7.62109375 67.203125 C12.82792457 63.65331925 17.60752054 59.91471436 21.62109375 55.015625 C21.62109375 54.355625 21.62109375 53.695625 21.62109375 53.015625 C20.66203125 54.315 20.66203125 54.315 19.68359375 55.640625 C15.40423979 60.80282562 9.16533373 65.37797854 2.421875 66.32421875 C-3.45463707 66.62865344 -7.03848553 65.84747429 -11.5546875 62 C-19.64143253 53.20328378 -20.60797872 44.99998111 -21.04638672 33.50073242 C-21.10090798 32.14786324 -21.16294544 30.7952737 -21.23291016 29.44311523 C-21.67343503 20.925953 -21.71691122 13.00353531 -18.37890625 5.015625 C-17.71890625 4.355625 -17.05890625 3.695625 -16.37890625 3.015625 C-14.36935965 3.015625 -12.35752403 3.02064225 -10.3515625 3.140625 C-8.05329072 3.1603607 -8.05329072 3.1603607 -5.37890625 1.015625 C-5.04890625 1.345625 -4.71890625 1.675625 -4.37890625 2.015625 C-2.37890625 0.015625 -2.37890625 0.015625 0 0 Z " fill="#F3B79E" transform="translate(267.37890625,70.984375)"/>
<path d="M0 0 C1.90258789 0.2644043 1.90258789 0.2644043 4 1 C4.93920898 2.62036133 4.93920898 2.62036133 5.55859375 4.76953125 C5.79690918 5.58373535 6.03522461 6.39793945 6.28076172 7.23681641 C7.61703691 12.37054437 8.86744359 17.51911027 10.0625 22.6875 C10.5716991 24.87949309 11.0833409 27.07092046 11.59765625 29.26171875 C11.81945557 30.22037842 12.04125488 31.17903809 12.26977539 32.16674805 C12.98181032 35.0874383 12.98181032 35.0874383 14.11108398 38.21020508 C15.02317113 41.07272082 15.05839451 42.24817427 14 45 C12.53515625 43.73046875 11.0703125 42.4609375 9.60546875 41.19140625 C7.89287029 39.79128769 7.89287029 39.79128769 5 39 C5.54269531 39.39832031 6.08539063 39.79664063 6.64453125 40.20703125 C7.35996094 40.73683594 8.07539063 41.26664063 8.8125 41.8125 C9.52019531 42.33457031 10.22789062 42.85664063 10.95703125 43.39453125 C14.85214809 46.45551217 16.29977982 48.0455152 16.96484375 53.08203125 C17.85332678 58.63436676 19.46274823 63.48967813 21.5625 68.6875 C22.27927784 70.51928407 22.99539709 72.35132595 23.7109375 74.18359375 C24.08444336 75.13089355 24.45794922 76.07819336 24.84277344 77.05419922 C34.3798708 101.33154454 34.3798708 101.33154454 38 113.5 C38.19553467 114.15129883 38.39106934 114.80259766 38.5925293 115.47363281 C39.8738901 119.97396467 40.50750536 124.36234219 41 129 C41.66 128.01 42.32 127.02 43 126 C47.85677023 129.61674379 51.48439487 133.64314469 55 138.5625 C55.40984131 139.11639404 55.81968262 139.67028809 56.24194336 140.2409668 C57.98299186 142.7578154 58.98466071 144.54982504 59.08984375 147.63671875 C57.5731627 150.92557909 55.53713062 152.22307355 52.5625 154.25 C51.57378906 154.93578125 50.58507812 155.6215625 49.56640625 156.328125 C45.0048296 159.29974571 42.38846927 159.08691079 37 159 C33.82913066 149.79098584 30.81340817 140.5678326 28.1875 131.1875 C25.87921424 122.99351431 23.50168171 114.82189851 21.02212524 106.6781311 C20.45251876 104.79953284 19.89347158 102.9177431 19.3347168 101.03588867 C16.15110334 89.20938594 16.15110334 89.20938594 8.39453125 80.37890625 C7.54246094 80.10949219 6.69039062 79.84007812 5.8125 79.5625 C1.29870993 77.62418599 1.29870993 77.62418599 -0.08984375 74.72265625 C-0.62732325 72.11372291 -0.90084744 69.6605938 -1 67 C-1.0309375 66.27296875 -1.061875 65.5459375 -1.09375 64.796875 C-1.11975085 63.1978227 -1.06946758 61.59775423 -1 60 C-2.051875 59.9071875 -2.051875 59.9071875 -3.125 59.8125 C-6.90294815 58.744819 -9.71987502 57.20285114 -12 54 C-13.26344209 48.33099028 -11.95566562 41.40826049 -10 36 C-9.01 35.505 -9.01 35.505 -8 35 C-9.32 34.67 -10.64 34.34 -12 34 C-12 37.3 -12 40.6 -12 44 C-12.66 44 -13.32 44 -14 44 C-15.7479503 38.75614911 -16.19392201 34.52677733 -16 29 C-12.7 29 -9.4 29 -6 29 C-8.0706428 25.56480483 -8.0706428 25.56480483 -11 23 C-14.7174474 22.46744433 -18.26996191 22.64724684 -22 23 C-22.66 21.68 -23.32 20.36 -24 19 C-9.87610619 15.33824975 -9.87610619 15.33824975 -4.1875 18.625 C-1.44431562 21.60331447 1 24.81027269 1 29 C1.99 29 2.98 29 4 29 C3.71125 27.74445313 3.4225 26.48890625 3.125 25.1953125 C-0.57027365 8.69667315 -0.57027365 8.69667315 0 0 Z " fill="#F9BBA2" transform="translate(174,129)"/>
<path d="M0 0 C4.53237412 3.92544713 6.78064136 8.38735224 8.99609375 13.875 C9.99337386 15.98597424 11.04280653 17.36498631 12.625 19.0625 C16.93816863 24.39720857 17.47667909 30.67543202 17.3125 37.35546875 C16.34956591 45.50429848 12.80793233 53.19206767 7 59 C4.45780467 60.97900128 1.87083344 62.79627518 -0.828125 64.5546875 C-3.08499631 65.95370931 -3.08499631 65.95370931 -5 68 C-5 67.34 -5 66.68 -5 66 C-5.99 66 -6.98 66 -8 66 C-8 65.34 -8 64.68 -8 64 C-6.9275 63.7525 -5.855 63.505 -4.75 63.25 C-0.96341353 61.98780451 0.57206878 61.08160501 3 58 C4.25265681 54.24202958 4.44946341 50.93076185 4 47 C2.99511774 44.82499353 2.99511774 44.82499353 1 44 C-2.85120178 44.19749753 -5.10345247 45.53257062 -8 48 C-8.27714844 47.37351563 -8.55429687 46.74703125 -8.83984375 46.1015625 C-9.38318359 44.87566406 -9.38318359 44.87566406 -9.9375 43.625 C-10.47697266 42.40683594 -10.47697266 42.40683594 -11.02734375 41.1640625 C-11.6569903 39.76316215 -12.31312642 38.37374716 -13 37 C-11.02 36.505 -11.02 36.505 -9 36 C-9.556875 36.00902344 -10.11375 36.01804688 -10.6875 36.02734375 C-16.56093457 35.79915288 -19.90922927 34.32108862 -24.13671875 30.24609375 C-27.44489156 26.2582544 -32 20.37011664 -32 15 C-33.43655854 14.91868537 -34.8744483 14.86066441 -36.3125 14.8125 C-37.11300781 14.77769531 -37.91351563 14.74289063 -38.73828125 14.70703125 C-41.08106189 14.77335988 -41.08106189 14.77335988 -42.46875 16.5 C-44 18 -44 18 -46.48046875 18.29296875 C-47.37378906 18.25816406 -48.26710937 18.22335938 -49.1875 18.1875 C-50.53908203 18.14689453 -50.53908203 18.14689453 -51.91796875 18.10546875 C-52.60503906 18.07066406 -53.29210937 18.03585938 -54 18 C-55.89028564 23.6946341 -57.33208587 29.09474561 -57.7890625 35.08984375 C-58 37 -58 37 -59 40 C-63.98315491 34.11081693 -64.22733794 28.33960603 -64.265625 20.90234375 C-63.61418279 13.78437961 -59.87159765 10.54690009 -54.8125 5.9375 C-54.16474609 5.32583984 -53.51699219 4.71417969 -52.84960938 4.08398438 C-38.40870835 -9.26050458 -16.741236 -11.4545299 0 0 Z " fill="#6B4C4B" transform="translate(303,55)"/>
<path d="M0 0 C3.09843816 0.11065851 4.12371624 1.12268182 6.3359375 3.31640625 C11.04524271 7.30687006 17.03235873 8.31992895 22.875 9.875 C58.26304909 19.85521446 58.26304909 19.85521446 68 36 C69.47263254 39.67084265 70.47724327 43.43276086 71.5 47.25 C75.27920478 60.48644853 80.19055944 73.14894703 85.33984375 85.90136719 C85.6398378 86.65188858 85.93983185 87.40240997 86.24891663 88.17567444 C86.81110015 89.58071524 87.37982155 90.98316638 87.95652771 92.38230896 C89.6406975 96.59614659 91.07515887 100.43735534 91 105 C90.02087646 105.80759766 89.04175293 106.61519531 88.03295898 107.44726562 C87.03208252 108.28966797 86.03120605 109.13207031 85 110 C84.80289503 113.00650777 84.92122261 114.96221727 85.47265625 117.84375 C85.58975449 118.60177917 85.70685272 119.35980835 85.82749939 120.14080811 C86.08059218 121.76054406 86.3480984 123.37808196 86.62866211 124.99328613 C87.35286792 129.17774489 87.96636569 133.37883733 88.59765625 137.578125 C88.72435699 138.39996277 88.85105774 139.22180054 88.9815979 140.06854248 C89.95604527 146.44888897 90.67326754 152.80053247 91 159.25 C91.05293213 160.03181641 91.10586426 160.81363281 91.16040039 161.61914062 C91.40486238 167.64609451 90.43857824 173.99515556 86.54174805 178.796875 C75.65365941 189.49268348 58.40100012 190.24160859 44.1328125 191.25390625 C42.68957643 191.36035715 41.24637021 191.46721339 39.80319214 191.57444763 C36.77939149 191.7977175 33.75531439 192.01658356 30.73095703 192.23217773 C26.94564455 192.50228546 23.1611647 192.7824689 19.37682533 193.06584454 C3.59358144 194.24361533 -12.15821121 195.27358979 -27.98580933 195.63136292 C-35.71255171 195.8327572 -43.00540413 196.83118718 -50.56640625 198.35546875 C-58.43144033 199.83184033 -64.79566987 199.60216506 -72 196 C-73.3125 193.9375 -73.3125 193.9375 -74 192 C-74.99 191.34 -75.98 190.68 -77 190 C-77 189.01 -77 188.02 -77 187 C-78.2065625 186.62875 -78.2065625 186.62875 -79.4375 186.25 C-80.283125 185.8375 -81.12875 185.425 -82 185 C-82.33333333 183.66666667 -82.66666667 182.33333333 -83 181 C-85.45704762 179.76709799 -85.45704762 179.76709799 -88 179 C-89 178 -89 178 -89.0625 175.4375 C-89.0315625 174.2309375 -89.0315625 174.2309375 -89 173 C-86.03 172.01 -83.06 171.02 -80 170 C-79.67 168.35 -79.34 166.7 -79 165 C-70.84093785 161.94035169 -62.55461348 160.48000061 -54 159 C-55.23045169 152.2909582 -55.23045169 152.2909582 -57.125 145.75 C-58.09465144 142.70252404 -58.15135508 140.17845661 -58 137 C-58.7425 137.165 -59.485 137.33 -60.25 137.5 C-63 138 -63 138 -67 138 C-68.58069681 139.32259786 -68.58069681 139.32259786 -70 141.125 C-74.46673718 145.89275642 -79.97841163 148.59664675 -86 151 C-86.99 151 -87.98 151 -89 151 C-89 153.64 -89 156.28 -89 159 C-89.33 159 -89.66 159 -90 159 C-90 155.7 -90 152.4 -90 149 C-88.68 148.62875 -87.36 148.2575 -86 147.875 C-81.53608454 146.41049777 -78.32662402 144.28251616 -74.7265625 141.3046875 C-73 140 -73 140 -70 139 C-70.38644832 132.90184546 -72.09654052 129.82417329 -75.875 125.3125 C-76.32230469 124.75755859 -76.76960937 124.20261719 -77.23046875 123.63085938 C-78.47967751 122.08132462 -79.73951162 120.54037318 -81 119 C-82.00863674 117.67318815 -83.01311932 116.34307271 -84 115 C-81.0262699 116.33706365 -78.94507617 117.80721649 -76.65234375 120.1171875 C-75.74452148 121.02791016 -75.74452148 121.02791016 -74.81835938 121.95703125 C-74.19767578 122.58996094 -73.57699219 123.22289062 -72.9375 123.875 C-72.31294922 124.50019531 -71.68839844 125.12539063 -71.04492188 125.76953125 C-68.61140272 128.22642466 -66.30051075 130.58990703 -64.25390625 133.3828125 C-63.00060954 135.30865976 -63.00060954 135.30865976 -60 136 C-60.56748936 117.16442825 -61.51900931 98.55293977 -65 80 C-64.34 80.33 -63.68 80.66 -63 81 C-62.33460604 83.30366732 -61.79266157 85.54369785 -61.30859375 87.88671875 C-61.158423 88.5813472 -61.00825226 89.27597565 -60.85353088 89.99165344 C-60.37356202 92.22198302 -59.90558906 94.45465033 -59.4375 96.6875 C-59.11858535 98.17398854 -58.79893269 99.66031896 -58.47851562 101.14648438 C-54.83614349 118.14758754 -54.83614349 118.14758754 -55.0078125 124.23046875 C-55.02457031 125.19919922 -55.04132813 126.16792969 -55.05859375 127.16601562 C-55.10243968 129.16100535 -55.15436286 131.15583591 -55.21484375 133.15039062 C-55.30529679 139.37109315 -54.56853926 144.61767187 -52.67016602 150.55126953 C-51.68987681 154.13316414 -51.79108359 157.30914343 -52 161 C-51.34 161.33 -50.68 161.66 -50 162 C-63.86 163.98 -63.86 163.98 -78 166 C-77.67 166.99 -77.34 167.98 -77 169 C-69.08 169 -61.16 169 -53 169 C-53 169.66 -53 170.32 -53 171 C-63.07373377 176.27223449 -69.14858577 177.21523385 -80 174 C-82.33215844 173.92596322 -84.66860788 173.90484114 -87 174 C-87 175.32 -87 176.64 -87 178 C-86.27296875 178.18175781 -85.5459375 178.36351562 -84.796875 178.55078125 C-83.79140625 178.80214844 -82.7859375 179.05351562 -81.75 179.3125 C-80.6671875 179.58320313 -79.584375 179.85390625 -78.46875 180.1328125 C-76.15625 180.7109375 -73.84375 181.2890625 -71.53125 181.8671875 C-70.4484375 182.13789063 -69.365625 182.40859375 -68.25 182.6875 C-66.5 183.125 -64.75 183.5625 -63 184 C-63 184.66 -63 185.32 -63 186 C-63.81984375 185.855625 -64.6396875 185.71125 -65.484375 185.5625 C-66.56203125 185.376875 -67.6396875 185.19125 -68.75 185 C-69.81734375 184.814375 -70.8846875 184.62875 -71.984375 184.4375 C-75.15189374 183.90428357 -75.15189374 183.90428357 -79 184 C-76.60539412 184.81627446 -74.20943474 185.62811645 -71.8125 186.4375 C-71.13896484 186.66759766 -70.46542969 186.89769531 -69.77148438 187.13476562 C-66.20485509 188.33524085 -62.7128839 189.37277495 -59 190 C-59 190.66 -59 191.32 -59 192 C-64.13503344 191.35812082 -68.9943454 190.31727753 -74 189 C-69.545 190.98 -69.545 190.98 -65 193 C-65 193.66 -65 194.32 -65 195 C-62.1388034 196.4305983 -59.93160758 195.92647725 -56.75 195.6875 C-55.63109375 195.60886719 -54.5121875 195.53023437 -53.359375 195.44921875 C-49.7707062 195.12931907 -46.23856252 194.57316661 -42.6796875 194.015625 C-34.76864834 192.86306843 -26.88665864 192.48787657 -18.90460205 192.16574097 C-3.01540594 191.51725321 12.80972729 190.48298794 28.64697266 189.05297852 C30.02243794 188.92959358 31.39792594 188.80646162 32.7734375 188.68359375 C33.43812546 188.62377319 34.10281342 188.56395264 34.78764343 188.50231934 C40.80677407 187.97873105 46.8331199 187.65228629 52.86935425 187.39768982 C64.80606602 186.83177133 77.34975424 183.65024576 86 175 C93.33449169 160.15518977 86.00076374 134.52527263 83.38037109 118.95727539 C82.99201986 115.93795671 82.93490174 113.0406547 83 110 C82.04222656 110.49628906 81.08445312 110.99257812 80.09765625 111.50390625 C72.75578215 115.26610455 65.36641559 118.82476407 57.75 122 C57.03593994 122.30236572 56.32187988 122.60473145 55.58618164 122.91625977 C52.11891829 124.33379889 49.8029744 125 46 125 C46.21205078 125.68102783 46.42410156 126.36205566 46.64257812 127.0637207 C47.59941455 130.1453123 48.5497775 133.22886288 49.5 136.3125 C49.83386719 137.38435547 50.16773438 138.45621094 50.51171875 139.56054688 C50.82753906 140.58857422 51.14335937 141.61660156 51.46875 142.67578125 C51.76201172 143.62364502 52.05527344 144.57150879 52.35742188 145.5480957 C53 148 53 148 53 151 C54.423125 150.9690625 54.423125 150.9690625 55.875 150.9375 C59 151 59 151 61 152 C60.67 152.66 60.34 153.32 60 154 C59.19369141 153.75636719 59.19369141 153.75636719 58.37109375 153.5078125 C49.31356687 151.56797973 39.13456958 153.16278904 30 154 C31.5922495 150.815501 34.86094144 150.45157492 38.0625 149.375 C38.72572266 149.14554688 39.38894531 148.91609375 40.07226562 148.6796875 C41.71259669 148.11324224 43.35602157 147.55577077 45 147 C44.37474504 142.99454147 44.37474504 142.99454147 43.48510742 139.04296875 C42.82694598 136.27120483 42.70582364 133.48739758 42.50537109 130.65234375 C41.5385837 117.35718136 39.34533322 104.32798589 37.0324707 91.21484375 C36.83318214 90.07160645 36.83318214 90.07160645 36.62986755 88.90527344 C36.37923349 87.47148916 36.12413577 86.03847484 35.86366272 84.60644531 C35.17838296 80.68962469 34.87753222 76.97442601 35 73 C37.82676578 75.82676578 37.89587721 78.98326025 38.5078125 82.7890625 C38.63815887 83.56631683 38.76850525 84.34357117 38.90280151 85.14437866 C39.17725016 86.79303131 39.44765888 88.44236075 39.71435547 90.09228516 C40.12030058 92.59601561 40.54153251 95.0968105 40.96484375 97.59765625 C41.23009424 99.20297201 41.49444518 100.80843671 41.7578125 102.4140625 C41.88278107 103.15395416 42.00774963 103.89384583 42.13650513 104.65615845 C42.90729236 109.49565332 43.10986213 114.09904366 43 119 C58.89054739 116.53198583 74.21335652 112.56350983 88 104 C87.39025339 99.4232116 86.17937614 95.48638051 84.48828125 91.1953125 C84.23934113 90.5586113 83.990401 89.9219101 83.73391724 89.26591492 C83.20443075 87.91348156 82.67236803 86.56205436 82.13790894 85.21157837 C81.3056575 83.10770261 80.48097487 81.00100528 79.65844727 78.89331055 C78.58546314 76.14492854 77.51044117 73.39736662 76.43261719 70.65087891 C69.17358059 52.15196388 69.17358059 52.15196388 67.4375 44.5 C65.46358948 36.0795031 61.2848012 29.74070538 54 25 C41.55207188 18.05757575 27.8466577 14.08620894 14.20019531 10.20336914 C13.3078418 9.94676514 12.41548828 9.69016113 11.49609375 9.42578125 C10.69486084 9.20059814 9.89362793 8.97541504 9.06811523 8.7434082 C6.2979685 7.74764657 4.6960648 6.3899095 3 4 C3 3.34 3 2.68 3 2 C1.35 2 -0.3 2 -2 2 C-1.34 1.34 -0.68 0.68 0 0 Z M-70.3125 171.5 C-71.91544922 171.63921875 -71.91544922 171.63921875 -73.55078125 171.78125 C-74.35902344 171.8534375 -75.16726562 171.925625 -76 172 C-71.95398061 174.69734626 -68.74576236 174.43218852 -64 174 C-61.06919326 173.13346586 -61.06919326 173.13346586 -59 172 C-59 171.67 -59 171.34 -59 171 C-62.80285642 170.94355686 -66.52462996 171.16700044 -70.3125 171.5 Z " fill="#060301" transform="translate(302,140)"/>
<path d="M0 0 C3.25919394 3.16866078 5.02872656 6.80547043 6.5625 11.078125 C8.00701452 14.36840808 10.09407652 16.89324393 12.34765625 19.67578125 C16.75493665 26.1389359 15.46394903 37.2111998 14.6875 44.640625 C13.55683233 48.45775906 12.04618914 51.45018759 9.6875 54.640625 C9.089375 55.47335938 8.49125 56.30609375 7.875 57.1640625 C5.46230317 59.89557998 3.02762319 61.4776916 -0.0625 63.390625 C-3.93405308 65.9787754 -3.93405308 65.9787754 -6.0625 69.91015625 C-6.0625 72.26311976 -5.7893295 74.33868948 -5.3125 76.640625 C-5.14326893 77.99447358 -4.97635203 79.34861489 -4.8125 80.703125 C-4.6475 81.6725 -4.4825 82.641875 -4.3125 83.640625 C-4.9725 83.640625 -5.6325 83.640625 -6.3125 83.640625 C-8.5229495 78.39080744 -9.20984279 73.26082457 -8.3125 67.640625 C-6.29082625 64.86082359 -4.24236166 63.26498796 -1.41015625 61.36328125 C5.46211244 56.60149815 9.0217649 50.88067797 12.0625 43.140625 C13.47339657 35.23960419 13.25786898 27.95138053 9.6875 20.640625 C8.04580472 18.62007696 6.37838222 16.62019442 4.6875 14.640625 C3.95502984 13.14093245 3.26926708 11.61777113 2.625 10.078125 C-0.3091146 3.20884494 -3.63573856 -0.11717716 -10.3984375 -3.2890625 C-21.5317065 -7.37822564 -34.32483806 -8.05556982 -45.3125 -3.359375 C-48.26590072 -1.65348146 -50.7494614 0.39740316 -53.3125 2.640625 C-53.80637207 3.06504883 -54.30024414 3.48947266 -54.80908203 3.92675781 C-56.46859931 5.35941317 -58.11172834 6.8087386 -59.75 8.265625 C-60.28286621 8.73291016 -60.81573242 9.20019531 -61.36474609 9.68164062 C-65.045741 13.02663236 -65.045741 13.02663236 -66.3125 17.640625 C-66.39113281 18.53136719 -66.46976562 19.42210938 -66.55078125 20.33984375 C-66.72628009 27.40598109 -65.80259993 32.47062691 -62.3125 38.640625 C-62.415625 37.58875 -62.51875 36.536875 -62.625 35.453125 C-62.68233494 29.08894699 -59.76793622 23.39336129 -57.3125 17.640625 C-55.70375 17.4240625 -55.70375 17.4240625 -54.0625 17.203125 C-48.60421576 16.60010696 -48.60421576 16.60010696 -44.3125 13.640625 C-38.05534951 13.07179314 -38.05534951 13.07179314 -35.76171875 14.828125 C-33.97574915 17.06179048 -32.82555244 19.38799322 -31.5625 21.953125 C-28.89635389 26.86273552 -26.50549229 31.18128439 -21.3125 33.640625 C-17.30131431 34.38548759 -13.38785671 34.62724123 -9.3125 34.640625 C-12.3125 36.640625 -12.3125 36.640625 -15.3125 37.640625 C-14.673125 38.754375 -14.03375 39.868125 -13.375 41.015625 C-12.30723894 42.87559587 -11.27178532 44.72205437 -10.3125 46.640625 C-9.590625 45.96 -8.86875 45.279375 -8.125 44.578125 C-5.3125 42.640625 -5.3125 42.640625 -2.625 42.703125 C-0.3125 43.640625 -0.3125 43.640625 1.6875 46.640625 C2.12248983 52.03449888 2.11117946 55.23875141 -1.3125 59.640625 C-2.60829647 61.01046698 -3.93242749 62.3557299 -5.3125 63.640625 C-5.9725 63.310625 -6.6325 62.980625 -7.3125 62.640625 C-6.89097656 62.228125 -6.46945312 61.815625 -6.03515625 61.390625 C-1.72869028 56.85110323 -0.41886212 53.91598984 -0.3125 47.640625 C-0.6425 46.980625 -0.9725 46.320625 -1.3125 45.640625 C-3.68624861 45.30636765 -3.68624861 45.30636765 -6.3125 45.640625 C-7.94926257 47.6006531 -7.94926257 47.6006531 -9.3125 49.640625 C-10.3025 49.640625 -11.2925 49.640625 -12.3125 49.640625 C-12.48523438 48.99996094 -12.65796875 48.35929687 -12.8359375 47.69921875 C-15.05987396 40.85398314 -17.82620465 38.07059299 -23.84765625 34.27734375 C-30.34273104 29.9644494 -33.82894472 23.43818198 -37.3125 16.640625 C-39.78516765 16.98507381 -39.78516765 16.98507381 -42.3125 17.640625 C-42.6425 18.300625 -42.9725 18.960625 -43.3125 19.640625 C-43.9725 19.310625 -44.6325 18.980625 -45.3125 18.640625 C-45.89 18.785 -46.4675 18.929375 -47.0625 19.078125 C-49.85516395 19.77629099 -52.44534701 19.70578757 -55.3125 19.640625 C-55.786875 20.6925 -56.26125 21.744375 -56.75 22.828125 C-57.01683594 23.41980469 -57.28367187 24.01148438 -57.55859375 24.62109375 C-59.94781812 31.02124401 -59.3784261 37.56580137 -59.18041992 44.28588867 C-59.12563911 46.30457371 -59.09672938 48.32259244 -59.06835938 50.34179688 C-58.76496764 61.0669609 -57.06956077 69.88356423 -49.3125 77.640625 C-45.43778503 80.96180926 -41.79863127 81.15656494 -36.8671875 80.98828125 C-28.30960939 79.82371787 -22.14002902 73.53815437 -16.3125 67.640625 C-17.09045137 73.76522398 -22.93928416 77.78264436 -27.3125 81.640625 C-29.44052814 83.043189 -31.53237542 84.28422556 -33.81640625 85.41015625 C-35.90554466 86.86387149 -35.90554466 86.86387149 -36.3125 91.640625 C-28.3925 91.145625 -28.3925 91.145625 -20.3125 90.640625 C-22.3125 92.640625 -22.3125 92.640625 -24.29614258 92.78833008 C-25.48953247 92.72488403 -25.48953247 92.72488403 -26.70703125 92.66015625 C-28.01704102 92.61665039 -28.01704102 92.61665039 -29.35351562 92.57226562 C-31.1900181 92.49331802 -33.02604499 92.40231661 -34.86132812 92.29882812 C-40.35194411 92.04360124 -40.35194411 92.04360124 -44.87890625 94.84765625 C-45.68199219 95.76933594 -46.48507812 96.69101563 -47.3125 97.640625 C-50.24622961 99.47579117 -53.34018488 100.97684893 -56.4375 102.515625 C-74.63631263 111.60847684 -74.63631263 111.60847684 -86.3125 127.640625 C-87.07421179 130.50826816 -87.57476565 133.40349763 -88.06640625 136.328125 C-88.21279037 137.14885498 -88.3591745 137.96958496 -88.50999451 138.81518555 C-88.97380473 141.42220275 -89.42521603 144.03115448 -89.875 146.640625 C-90.33002965 149.24975101 -90.78780139 151.85832575 -91.25071716 154.46606445 C-91.53731814 156.0835177 -91.81920343 157.70181606 -92.09559631 159.32104492 C-92.8458797 163.5872724 -93.87103353 167.5416956 -95.3125 171.640625 C-95.70908867 175.47879668 -95.5413589 178.9540483 -94.3125 182.640625 C-89.20864206 182.95961612 -85.77631034 182.29933965 -81.109375 180.19921875 C-79.3125 179.640625 -79.3125 179.640625 -76.3125 180.640625 C-82.13668481 183.9841385 -87.48148137 186.02153682 -94.3125 185.640625 C-96.7402285 183.2128965 -97.29396737 181.26661515 -98.4140625 178.0234375 C-98.81818359 176.8679541 -99.22230469 175.7124707 -99.63867188 174.52197266 C-100.06728516 173.28237793 -100.49589844 172.0427832 -100.9375 170.765625 C-101.83074027 168.21169538 -102.73013001 165.65998162 -103.6328125 163.109375 C-103.9706778 162.15461777 -103.9706778 162.15461777 -104.31536865 161.18057251 C-106.6346307 154.66815568 -109.17619814 148.25476863 -111.79931641 141.85986328 C-116.27083862 130.9529586 -116.27083862 130.9529586 -116.4375 125.703125 C-116.84229845 121.98892165 -118.13089386 120.38867094 -120.875 117.890625 C-124.76850478 114.81384093 -128.79084178 112.65922242 -133.3125 110.640625 C-130.3125 109.640625 -130.3125 109.640625 -128.15625 110.53125 C-126.99609375 111.20414063 -126.99609375 111.20414063 -125.8125 111.890625 C-124.65234375 112.54804688 -124.65234375 112.54804688 -123.46875 113.21875 C-121.46067967 114.54291232 -119.97579357 115.9214124 -118.3125 117.640625 C-118.97341015 114.63927531 -119.64096404 111.63961098 -120.3125 108.640625 C-120.59319336 107.38523926 -120.87388672 106.12985352 -121.16308594 104.83642578 C-121.97833122 101.21091493 -122.8153749 97.5908034 -123.66162109 93.97241211 C-124.01478366 92.44843528 -124.36170512 90.92299981 -124.70263672 89.39624023 C-125.20017364 87.17297585 -125.71887602 84.95560045 -126.2421875 82.73828125 C-126.39025848 82.05500259 -126.53832947 81.37172394 -126.69088745 80.66773987 C-127.61219712 76.81170628 -127.61219712 76.81170628 -130.44189453 74.19702148 C-131.36784424 73.92160522 -131.36784424 73.92160522 -132.3125 73.640625 C-131.075323 83.19813567 -131.075323 83.19813567 -129.1875 92.640625 C-128.37602081 96.03235442 -128.13284057 99.13726618 -128.3125 102.640625 C-129.3025 102.640625 -130.2925 102.640625 -131.3125 102.640625 C-131.63863281 102.01414062 -131.96476562 101.38765625 -132.30078125 100.7421875 C-132.73777344 99.92492187 -133.17476562 99.10765625 -133.625 98.265625 C-134.05425781 97.45351562 -134.48351562 96.64140625 -134.92578125 95.8046875 C-136.28028724 93.37228457 -136.28028724 93.37228457 -139.3125 91.640625 C-145.05848289 91.34341899 -150.61605475 91.90219691 -156.3125 92.640625 C-155.6525 93.630625 -154.9925 94.620625 -154.3125 95.640625 C-151.83922625 95.73804734 -151.83922625 95.73804734 -149.0625 95.390625 C-143.89807964 95.20060691 -143.89807964 95.20060691 -141.25390625 97.1875 C-139.78875508 98.94427598 -138.4953382 100.68420063 -137.3125 102.640625 C-140.13420003 103.58119168 -141.50499344 103.67655995 -144.375 103.515625 C-145.674375 103.556875 -146.97375 103.598125 -148.3125 103.640625 C-148.9725 104.630625 -149.6325 105.620625 -150.3125 106.640625 C-150.6425 105.650625 -150.9725 104.660625 -151.3125 103.640625 C-148.91740662 100.74130143 -147.00004757 100.13894224 -143.3125 99.640625 C-145.79889495 98.8755804 -147.55830443 98.65665572 -150.1875 98.828125 C-154.18604296 98.58821242 -156.17371326 97.03208156 -159.3125 94.640625 C-156.46949012 91.02963323 -154.05350223 90.03217142 -149.51757812 89.43164062 C-148.81052734 89.35623047 -148.10347656 89.28082031 -147.375 89.203125 C-146.67181641 89.10064453 -145.96863281 88.99816406 -145.24414062 88.89257812 C-141.88944627 88.49328461 -139.61718041 88.50920252 -136.49609375 89.85546875 C-134.33999383 91.61814793 -132.83469724 93.31727132 -131.3125 95.640625 C-131.5290625 94.81820312 -131.745625 93.99578125 -131.96875 93.1484375 C-133.71032412 86.16601533 -134.75099861 79.83525042 -134.3125 72.640625 C-132.0625 71.890625 -132.0625 71.890625 -129.3125 71.640625 C-125.20116559 74.70191038 -124.21153871 78.3816452 -123.09375 83.16796875 C-122.91053696 83.90462769 -122.72732391 84.64128662 -122.53855896 85.40026855 C-121.94896995 87.78965971 -121.38051608 90.18352283 -120.8125 92.578125 C-120.40907299 94.22878991 -120.00485436 95.87926155 -119.59985352 97.52954102 C-117.53969953 106.00625391 -115.69476763 114.47248319 -114.25 123.078125 C-112.56754668 132.95684089 -109.11105228 141.91778871 -105.31738281 151.16015625 C-103.73677613 155.06175097 -102.27525819 159.0061768 -100.8125 162.953125 C-100.32325578 164.26184557 -99.83371056 165.57045369 -99.34375 166.87890625 C-99.0034375 167.79027344 -98.663125 168.70164063 -98.3125 169.640625 C-97.9825 169.640625 -97.6525 169.640625 -97.3125 169.640625 C-97.10157715 168.46145508 -96.8906543 167.28228516 -96.67333984 166.06738281 C-95.87552039 161.63563587 -95.05328627 157.20869461 -94.22412109 152.78271484 C-93.87058285 150.87733994 -93.52341606 148.97077012 -93.18310547 147.06298828 C-88.25845433 119.52249054 -88.25845433 119.52249054 -77.61035156 111.16552734 C-73.16204115 108.21353554 -68.46819991 105.81582309 -63.6875 103.453125 C-53.13335629 98.84091903 -53.13335629 98.84091903 -44.75 91.390625 C-44.275625 90.813125 -43.80125 90.235625 -43.3125 89.640625 C-40.625 89.390625 -40.625 89.390625 -38.3125 89.640625 C-38.3125 87.660625 -38.3125 85.680625 -38.3125 83.640625 C-39.17875 83.723125 -40.045 83.805625 -40.9375 83.890625 C-48.00874407 83.36682914 -51.91127989 78.18868933 -56.48046875 73.25 C-61.65569472 65.87888924 -61.74552147 58.53944178 -61.75195312 49.79882812 C-61.871545 44.35945976 -62.38200272 41.69695741 -66.3125 37.640625 C-69.6445627 31.16299564 -70.2972185 23.79431526 -69.3125 16.640625 C-67.2693639 11.20185426 -63.90105034 7.88987922 -59.6875 4.078125 C-59.0594043 3.50602295 -58.43130859 2.9339209 -57.78417969 2.34448242 C-41.50999529 -12.17230738 -17.52153749 -13.98896945 0 0 Z " fill="#060404" transform="translate(306.3125,55.359375)"/>
<path d="M0 0 C4.96600512 2.83484503 8.23507897 6.88967827 11.125 11.75 C12.69281069 18.49158595 12.49302189 24.60805358 9.01953125 30.68359375 C5.84073499 35.07522305 1.88851225 37.72716307 -3.25 39.4375 C-10.64337054 40.30375322 -16.30283424 40.04958773 -22.25 35.4375 C-27.10665665 30.58084335 -29.5361683 26.46140429 -29.5625 19.5625 C-29.4387928 13.19931094 -28.15904878 9.66472358 -24 4.8125 C-16.63061296 -1.55197063 -9.33903068 -4.12488736 0 0 Z " fill="#EBEBEA" transform="translate(123.25,166.5625)"/>
<path d="M0 0 C3.09843816 0.11065851 4.12371624 1.12268182 6.3359375 3.31640625 C11.04524271 7.30687006 17.03235873 8.31992895 22.875 9.875 C58.26304909 19.85521446 58.26304909 19.85521446 68 36 C69.47263254 39.67084265 70.47724327 43.43276086 71.5 47.25 C75.27920478 60.48644853 80.19055944 73.14894703 85.33984375 85.90136719 C85.6398378 86.65188858 85.93983185 87.40240997 86.24891663 88.17567444 C86.81110015 89.58071524 87.37982155 90.98316638 87.95652771 92.38230896 C89.6406975 96.59614659 91.07515887 100.43735534 91 105 C90.02087646 105.80759766 89.04175293 106.61519531 88.03295898 107.44726562 C87.03208252 108.28966797 86.03120605 109.13207031 85 110 C84.80289503 113.00650777 84.92122261 114.96221727 85.47265625 117.84375 C85.58975449 118.60177917 85.70685272 119.35980835 85.82749939 120.14080811 C86.08059218 121.76054406 86.3480984 123.37808196 86.62866211 124.99328613 C87.35286792 129.17774489 87.96636569 133.37883733 88.59765625 137.578125 C88.72435699 138.39996277 88.85105774 139.22180054 88.9815979 140.06854248 C89.95604527 146.44888897 90.67326754 152.80053247 91 159.25 C91.05293213 160.03181641 91.10586426 160.81363281 91.16040039 161.61914062 C91.40486374 167.64612799 90.43880285 173.99597928 86.54101562 178.79711914 C80.26263152 184.96664751 70.67303333 188.40865682 62 189 C64.65762417 185.65871164 67.7608272 184.93304644 71.75 183.6875 C78.34804852 181.41771678 83.9510517 179.1534613 87.15234375 172.6640625 C92.11345952 157.07198435 86.02552271 134.67236796 83.38037109 118.95727539 C82.99201986 115.93795671 82.93490174 113.0406547 83 110 C81.56333984 110.74443359 81.56333984 110.74443359 80.09765625 111.50390625 C72.75578215 115.26610455 65.36641559 118.82476407 57.75 122 C57.03593994 122.30236572 56.32187988 122.60473145 55.58618164 122.91625977 C52.11891829 124.33379889 49.8029744 125 46 125 C46.21205078 125.68102783 46.42410156 126.36205566 46.64257812 127.0637207 C47.59941455 130.1453123 48.5497775 133.22886288 49.5 136.3125 C49.83386719 137.38435547 50.16773438 138.45621094 50.51171875 139.56054688 C50.82753906 140.58857422 51.14335937 141.61660156 51.46875 142.67578125 C51.76201172 143.62364502 52.05527344 144.57150879 52.35742188 145.5480957 C53 148 53 148 53 151 C54.423125 150.9690625 54.423125 150.9690625 55.875 150.9375 C59 151 59 151 61 152 C60.67 152.66 60.34 153.32 60 154 C59.19369141 153.75636719 59.19369141 153.75636719 58.37109375 153.5078125 C49.31356687 151.56797973 39.13456958 153.16278904 30 154 C31.5922495 150.815501 34.86094144 150.45157492 38.0625 149.375 C38.72572266 149.14554688 39.38894531 148.91609375 40.07226562 148.6796875 C41.71259669 148.11324224 43.35602157 147.55577077 45 147 C44.37474504 142.99454147 44.37474504 142.99454147 43.48510742 139.04296875 C42.82694598 136.27120483 42.70582364 133.48739758 42.50537109 130.65234375 C41.5385837 117.35718136 39.34533322 104.32798589 37.0324707 91.21484375 C36.89961166 90.45268555 36.76675262 89.69052734 36.62986755 88.90527344 C36.37923349 87.47148916 36.12413577 86.03847484 35.86366272 84.60644531 C35.17838296 80.68962469 34.87753222 76.97442601 35 73 C37.82676578 75.82676578 37.89587721 78.98326025 38.5078125 82.7890625 C38.70333206 83.954944 38.70333206 83.954944 38.90280151 85.14437866 C39.17725016 86.79303131 39.44765888 88.44236075 39.71435547 90.09228516 C40.12030058 92.59601561 40.54153251 95.0968105 40.96484375 97.59765625 C41.23009424 99.20297201 41.49444518 100.80843671 41.7578125 102.4140625 C41.94526535 103.52389999 41.94526535 103.52389999 42.13650513 104.65615845 C42.90729236 109.49565332 43.10986213 114.09904366 43 119 C58.89054739 116.53198583 74.21335652 112.56350983 88 104 C87.39025339 99.4232116 86.17937614 95.48638051 84.48828125 91.1953125 C84.23934113 90.5586113 83.990401 89.9219101 83.73391724 89.26591492 C83.20443075 87.91348156 82.67236803 86.56205436 82.13790894 85.21157837 C81.3056575 83.10770261 80.48097487 81.00100528 79.65844727 78.89331055 C78.58546314 76.14492854 77.51044117 73.39736662 76.43261719 70.65087891 C69.17358059 52.15196388 69.17358059 52.15196388 67.4375 44.5 C65.46358948 36.0795031 61.2848012 29.74070538 54 25 C41.55207188 18.05757575 27.8466577 14.08620894 14.20019531 10.20336914 C12.86166504 9.81846313 12.86166504 9.81846313 11.49609375 9.42578125 C10.69486084 9.20059814 9.89362793 8.97541504 9.06811523 8.7434082 C6.2979685 7.74764657 4.6960648 6.3899095 3 4 C3 3.34 3 2.68 3 2 C1.35 2 -0.3 2 -2 2 C-1.34 1.34 -0.68 0.68 0 0 Z " fill="#080402" transform="translate(302,140)"/>
<path d="M0 0 C2.5625 0.9375 2.5625 0.9375 4.08789062 3.47509766 C5.74669419 7.36999039 6.77529833 11.1585716 7.71875 15.2734375 C7.90715454 16.07045074 8.09555908 16.86746399 8.28967285 17.68862915 C8.68641138 19.37378159 9.07953213 21.05978941 9.46923828 22.74658203 C10.05311537 25.27191052 10.64855301 27.79428018 11.24609375 30.31640625 C13.05617724 38.02096368 14.73983298 45.71169358 16.10546875 53.5078125 C17.25462014 59.81748291 18.9278913 65.52187554 21.375 71.4375 C22.07990633 73.21204929 22.78432754 74.98679135 23.48828125 76.76171875 C23.83584473 77.62458496 24.1834082 78.48745117 24.54150391 79.37646484 C26.1102195 83.31138273 27.58744974 87.27923149 29.0625 91.25 C29.55186213 92.55867649 30.04142088 93.86727948 30.53125 95.17578125 C30.8715625 96.08714844 31.211875 96.99851562 31.5625 97.9375 C31.8925 97.9375 32.2225 97.9375 32.5625 97.9375 C32.77342285 96.75833008 32.9843457 95.57916016 33.20166016 94.36425781 C33.99947961 89.93251087 34.82171373 85.50556961 35.65087891 81.07958984 C36.00441715 79.17421494 36.35158394 77.26764512 36.69189453 75.35986328 C41.61654567 47.81936554 41.61654567 47.81936554 52.26464844 39.46240234 C56.71295885 36.51041054 61.40680009 34.11269809 66.1875 31.75 C77.22206005 26.57874703 77.22206005 26.57874703 86.5625 18.9375 C86.05891625 23.49264389 86.05891625 23.49264389 83.9453125 25.38671875 C83.20023437 25.79535156 82.45515625 26.20398438 81.6875 26.625 C80.34945312 27.37523437 80.34945312 27.37523437 78.984375 28.140625 C76.31482016 29.54244603 73.63802949 30.92497823 70.953125 32.296875 C70.12925293 32.72137939 69.30538086 33.14588379 68.45654297 33.58325195 C66.81586395 34.42458096 65.16925452 35.25447516 63.51611328 36.07104492 C54.6038315 40.6117321 47.0430056 46.25949018 43.5625 55.9375 C41.93237733 62.24952062 40.93532697 68.69853844 39.875 75.125 C39.43450387 77.7141518 38.98926914 80.30239531 38.53959656 82.88996887 C38.26283933 84.49053282 37.99199085 86.09213388 37.72810364 87.69487 C37.00854253 91.94340191 35.99974183 95.85983305 34.5625 99.9375 C34.16591133 103.77567168 34.3336411 107.2509233 35.5625 110.9375 C40.66635794 111.25649112 44.09868966 110.59621465 48.765625 108.49609375 C50.5625 107.9375 50.5625 107.9375 53.5625 108.9375 C47.73831519 112.2810135 42.39351863 114.31841182 35.5625 113.9375 C33.1347715 111.5097715 32.58103263 109.56349015 31.4609375 106.3203125 C31.05681641 105.1648291 30.65269531 104.0093457 30.23632812 102.81884766 C29.80771484 101.57925293 29.37910156 100.3396582 28.9375 99.0625 C28.04425973 96.50857038 27.14486999 93.95685662 26.2421875 91.40625 C26.01694397 90.76974518 25.79170044 90.13324036 25.55963135 89.47744751 C23.2403693 82.96503068 20.69880186 76.55164363 18.07568359 70.15673828 C13.60416138 59.2498336 13.60416138 59.2498336 13.4375 54 C13.03270155 50.28579665 11.74410614 48.68554594 9 46.1875 C5.10649522 43.11071593 1.08415822 40.95609742 -3.4375 38.9375 C-0.4375 37.9375 -0.4375 37.9375 1.71875 38.828125 C2.87890625 39.50101563 2.87890625 39.50101563 4.0625 40.1875 C4.8359375 40.62578125 5.609375 41.0640625 6.40625 41.515625 C8.41432033 42.83978732 9.89920643 44.2182874 11.5625 45.9375 C10.90158985 42.93615031 10.23403596 39.93648598 9.5625 36.9375 C9.28180664 35.68211426 9.00111328 34.42672852 8.71191406 33.13330078 C7.89666878 29.50778993 7.0596251 25.8876784 6.21337891 22.26928711 C5.86021634 20.74531028 5.51329488 19.21987481 5.17236328 17.69311523 C4.67482636 15.46985085 4.15612398 13.25247545 3.6328125 11.03515625 C3.48474152 10.35187759 3.33667053 9.66859894 3.18411255 8.96461487 C2.26280288 5.10858128 2.26280288 5.10858128 -0.56689453 2.49389648 C-1.18419434 2.31028564 -1.80149414 2.1266748 -2.4375 1.9375 C-1.200323 11.49501067 -1.200323 11.49501067 0.6875 20.9375 C1.49897919 24.32922942 1.74215943 27.43414118 1.5625 30.9375 C0.5725 30.9375 -0.4175 30.9375 -1.4375 30.9375 C-1.92669922 29.99777344 -1.92669922 29.99777344 -2.42578125 29.0390625 C-2.86277344 28.22179687 -3.29976562 27.40453125 -3.75 26.5625 C-4.17925781 25.75039062 -4.60851562 24.93828125 -5.05078125 24.1015625 C-6.40528724 21.66915957 -6.40528724 21.66915957 -9.4375 19.9375 C-15.18348289 19.64029399 -20.74105475 20.19907191 -26.4375 20.9375 C-25.7775 21.9275 -25.1175 22.9175 -24.4375 23.9375 C-21.96422625 24.03492234 -21.96422625 24.03492234 -19.1875 23.6875 C-14.02307964 23.49748191 -14.02307964 23.49748191 -11.37890625 25.484375 C-9.91375508 27.24115098 -8.6203382 28.98107563 -7.4375 30.9375 C-10.25920003 31.87806668 -11.62999344 31.97343495 -14.5 31.8125 C-15.799375 31.85375 -17.09875 31.895 -18.4375 31.9375 C-19.0975 32.9275 -19.7575 33.9175 -20.4375 34.9375 C-20.9325 33.4525 -20.9325 33.4525 -21.4375 31.9375 C-19.04240662 29.03817643 -17.12504757 28.43581724 -13.4375 27.9375 C-15.92389495 27.1724554 -17.68330443 26.95353072 -20.3125 27.125 C-24.31104296 26.88508742 -26.29871326 25.32895656 -29.4375 22.9375 C-26.59449012 19.32650823 -24.17850223 18.32904642 -19.64257812 17.72851562 C-18.93552734 17.65310547 -18.22847656 17.57769531 -17.5 17.5 C-16.79681641 17.39751953 -16.09363281 17.29503906 -15.36914062 17.18945312 C-12.01444627 16.79015961 -9.74218041 16.80607752 -6.62109375 18.15234375 C-4.46499383 19.91502293 -2.95969724 21.61414632 -1.4375 23.9375 C-1.6540625 23.11507812 -1.870625 22.29265625 -2.09375 21.4453125 C-3.83532412 14.46289033 -4.87599861 8.13212542 -4.4375 0.9375 C-2.4375 -0.0625 -2.4375 -0.0625 0 0 Z " fill="#0E0A09" transform="translate(176.4375,127.0625)"/>
<path d="M0 0 C1.90258789 0.2644043 1.90258789 0.2644043 4 1 C4.93920898 2.62036133 4.93920898 2.62036133 5.55859375 4.76953125 C5.79690918 5.58373535 6.03522461 6.39793945 6.28076172 7.23681641 C7.61703691 12.37054437 8.86744359 17.51911027 10.0625 22.6875 C10.5716991 24.87949309 11.0833409 27.07092046 11.59765625 29.26171875 C11.81945557 30.22037842 12.04125488 31.17903809 12.26977539 32.16674805 C12.98181032 35.0874383 12.98181032 35.0874383 14.11108398 38.21020508 C15.02317113 41.07272082 15.05839451 42.24817427 14 45 C13.13375 44.236875 12.2675 43.47375 11.375 42.6875 C6.2556037 38.45530587 1.63867052 36.66386705 -5 36 C-2.5967529 38.5405755 -0.53544463 40.71268825 2.5625 42.375 C5.49204685 44.32803123 6.42858854 46.21625016 8.01953125 49.28125 C9.32982972 51.57818755 11.03791369 53.24813722 13 55 C8.81980006 53.6910485 7.25662218 52.42155784 5.125 48.625 C3.1449829 45.42218163 1.6821625 43.46675437 -1.6875 41.75 C-5.31895347 39.83149628 -6.0374004 38.45791359 -8 35 C-9.32 34.67 -10.64 34.34 -12 34 C-12 37.3 -12 40.6 -12 44 C-12.66 44 -13.32 44 -14 44 C-15.7479503 38.75614911 -16.19392201 34.52677733 -16 29 C-12.7 29 -9.4 29 -6 29 C-8.0706428 25.56480483 -8.0706428 25.56480483 -11 23 C-14.7174474 22.46744433 -18.26996191 22.64724684 -22 23 C-22.66 21.68 -23.32 20.36 -24 19 C-9.87610619 15.33824975 -9.87610619 15.33824975 -4.1875 18.625 C-1.44431562 21.60331447 1 24.81027269 1 29 C1.99 29 2.98 29 4 29 C3.71125 27.74445313 3.4225 26.48890625 3.125 25.1953125 C-0.57027365 8.69667315 -0.57027365 8.69667315 0 0 Z " fill="#E4AC94" transform="translate(174,129)"/>
<path d="M0 0 C4.73474097 1.6996506 8.96167111 4.13659027 13.3125 6.625 C14.05306641 7.04523438 14.79363281 7.46546875 15.55664062 7.8984375 C17.37269011 8.92948495 19.18656533 9.96436046 21 11 C21 12.32 21 13.64 21 15 C19.33862305 16.62817383 19.33862305 16.62817383 17.01171875 18.20703125 C16.16448242 18.79081543 15.31724609 19.37459961 14.44433594 19.97607422 C13.53458008 20.58209473 12.62482422 21.18811523 11.6875 21.8125 C10.77645508 22.43398926 9.86541016 23.05547852 8.92675781 23.69580078 C2.70074652 27.92368136 -3.57469385 32.07997377 -10 36 C-9.41015995 28.53483683 -7.25395453 21.74150679 -5 14.625 C-4.63132812 13.43777344 -4.26265625 12.25054687 -3.8828125 11.02734375 C-1.16636588 2.33273176 -1.16636588 2.33273176 0 0 Z " fill="#AE997A" transform="translate(33,235)"/>
<path d="M0 0 C0.18433594 0.60585938 0.36867187 1.21171875 0.55859375 1.8359375 C2.66959087 5.00529361 5.57060435 5.5878327 9.0625 6.625 C9.73482666 6.83664795 10.40715332 7.0482959 11.09985352 7.26635742 C16.01592339 8.78539763 20.94609445 10.02468489 26 11 C26 11.66 26 12.32 26 13 C25.18015625 12.855625 24.3603125 12.71125 23.515625 12.5625 C22.43796875 12.376875 21.3603125 12.19125 20.25 12 C19.18265625 11.814375 18.1153125 11.62875 17.015625 11.4375 C13.84810626 10.90428357 13.84810626 10.90428357 10 11 C12.39460588 11.81627446 14.79056526 12.62811645 17.1875 13.4375 C17.86103516 13.66759766 18.53457031 13.89769531 19.22851562 14.13476562 C22.79514491 15.33524085 26.2871161 16.37277495 30 17 C30 17.66 30 18.32 30 19 C24.86496656 18.35812082 20.0056546 17.31727753 15 16 C19.455 17.98 19.455 17.98 24 20 C24 20.66 24 21.32 24 22 C26.8611966 23.4305983 29.06839242 22.92647725 32.25 22.6875 C33.36890625 22.60886719 34.4878125 22.53023438 35.640625 22.44921875 C39.2292938 22.12931907 42.76143748 21.57316661 46.3203125 21.015625 C54.23097995 19.86312259 62.11261752 19.48787737 70.09429932 19.16574097 C84.46981193 18.57928607 98.79384901 17.7063018 113.125 16.4375 C126.07577618 15.29244369 139.00244787 14.41512006 152 14 C151.67 14.66 151.34 15.32 151 16 C147.83322406 17.05559198 145.18839707 17.30766384 141.86157227 17.55664062 C139.95535851 17.70184143 139.95535851 17.70184143 138.01063538 17.84997559 C136.61257639 17.95230493 135.21449946 18.0543893 133.81640625 18.15625 C132.36318109 18.26434239 130.90996986 18.37262222 129.45677185 18.4810791 C126.39104556 18.7089164 123.32511875 18.93378966 120.2590332 19.15673828 C116.41871381 19.43630024 112.57905821 19.72400203 108.73951721 20.01403141 C92.82763005 21.21147056 76.94980498 22.27677237 60.99208069 22.63452148 C53.27258484 22.83381751 45.98745552 23.83260195 38.43359375 25.35546875 C30.56855967 26.83184033 24.20433013 26.60216506 17 23 C15.6875 20.9375 15.6875 20.9375 15 19 C14.01 18.34 13.02 17.68 12 17 C12 16.01 12 15.02 12 14 C11.195625 13.7525 10.39125 13.505 9.5625 13.25 C8.716875 12.8375 7.87125 12.425 7 12 C6.5 10 6.5 10 6 8 C3.54295238 6.76709799 3.54295238 6.76709799 1 6 C0 5 0 5 -0.0625 2.4375 C-0.041875 1.633125 -0.02125 0.82875 0 0 Z " fill="#241B17" transform="translate(213,313)"/>
<path d="M0 0 C0.495 1.98 0.495 1.98 1 4 C-6.10411213 8.98688476 -13.4912741 12.94759024 -21.27148438 16.76757812 C-30.49284748 21.44234377 -38.38598304 26.95074403 -42 37 C-43.63012267 43.31202062 -44.62717303 49.76103844 -45.6875 56.1875 C-46.12799613 58.7766518 -46.57323086 61.36489531 -47.02290344 63.95246887 C-47.29966067 65.55303282 -47.57050915 67.15463388 -47.83439636 68.75737 C-48.55395747 73.00590191 -49.56275817 76.92233305 -51 81 C-51.39658867 84.83817168 -51.2288589 88.3134233 -50 92 C-44.89614206 92.31899112 -41.46381034 91.65871465 -36.796875 89.55859375 C-35 89 -35 89 -32 90 C-37.82418481 93.3435135 -43.16898137 95.38091182 -50 95 C-52.52681862 92.47318138 -53.14969293 90.22421552 -54.34765625 86.85546875 C-54.78787109 85.62119141 -55.22808594 84.38691406 -55.68164062 83.11523438 C-55.90827393 82.47030029 -56.13490723 81.82536621 -56.3684082 81.16088867 C-57.05703756 79.20303038 -57.75530297 77.24882032 -58.45507812 75.29492188 C-62.16474179 64.83051087 -62.16474179 64.83051087 -63 60 C-60.66477348 62.10712137 -59.45751711 63.84023025 -58.39453125 66.79296875 C-58.00297852 67.8612793 -58.00297852 67.8612793 -57.60351562 68.95117188 C-57.34248047 69.68916016 -57.08144531 70.42714844 -56.8125 71.1875 C-56.40354492 72.31188477 -56.40354492 72.31188477 -55.98632812 73.45898438 C-55.31673904 75.30329116 -54.65736279 77.15130012 -54 79 C-53.67 79 -53.34 79 -53 79 C-52.68361572 77.23124512 -52.68361572 77.23124512 -52.36083984 75.42675781 C-51.56302039 70.99501087 -50.74078627 66.56806961 -49.91162109 62.14208984 C-49.55808285 60.23671494 -49.21091606 58.33014512 -48.87060547 56.42236328 C-43.94595433 28.88186554 -43.94595433 28.88186554 -33.29785156 20.52490234 C-28.84954115 17.57291054 -24.15569991 15.17519809 -19.375 12.8125 C-8.4496279 7.96387761 -8.4496279 7.96387761 0 0 Z " fill="#030100" transform="translate(262,146)"/>
<path d="M0 0 C0.33 0 0.66 0 1 0 C1.0093457 0.58378418 1.01869141 1.16756836 1.02832031 1.76904297 C1.18154262 21.0546845 1.18154262 21.0546845 11 37 C14.87471497 40.32118426 18.51386873 40.51593994 23.4453125 40.34765625 C32.00289061 39.18309287 38.17247098 32.89752937 44 27 C43.22204863 33.12459898 37.37321584 37.14201936 33 41 C30.87197186 42.402564 28.78012458 43.64360056 26.49609375 44.76953125 C24.40695534 46.22324649 24.40695534 46.22324649 24 51 C31.92 50.505 31.92 50.505 40 50 C38 52 38 52 35.84521484 52.22705078 C34.97590332 52.21657715 34.1065918 52.20610352 33.2109375 52.1953125 C32.26992188 52.18886719 31.32890625 52.18242187 30.359375 52.17578125 C28.88210938 52.15064453 28.88210938 52.15064453 27.375 52.125 C26.38242187 52.11597656 25.38984375 52.10695312 24.3671875 52.09765625 C21.91121866 52.07404116 19.45572832 52.04110799 17 52 C17.33 51.01 17.66 50.02 18 49 C19.32 49 20.64 49 22 49 C22 47.02 22 45.04 22 43 C21.13375 43.0825 20.2675 43.165 19.375 43.25 C12.30375593 42.72620414 8.40122011 37.54806433 3.83203125 32.609375 C-1.28620652 25.31943294 -1.32418181 19.08675293 -0.6875 10.5 C-0.62626953 9.48679687 -0.56503906 8.47359375 -0.50195312 7.4296875 C-0.35000196 4.95171467 -0.18236999 2.47588819 0 0 Z " fill="#110C09" transform="translate(246,96)"/>
<path d="M0 0 C3.5625 0.3125 3.5625 0.3125 5.11328125 1.5 C6.89925085 3.73366548 8.04944756 6.05986822 9.3125 8.625 C11.97864611 13.53461052 14.36950771 17.85315939 19.5625 20.3125 C23.57368569 21.05736259 27.48714329 21.29911623 31.5625 21.3125 C28.5625 23.3125 28.5625 23.3125 25.5625 24.3125 C26.201875 25.42625 26.84125 26.54 27.5 27.6875 C28.56776106 29.54747087 29.60321468 31.39392937 30.5625 33.3125 C31.284375 32.631875 32.00625 31.95125 32.75 31.25 C35.5625 29.3125 35.5625 29.3125 38.25 29.375 C40.5625 30.3125 40.5625 30.3125 42.5625 33.3125 C42.99748983 38.70637388 42.98617946 41.91062641 39.5625 46.3125 C38.26670353 47.68234198 36.94257251 49.0276049 35.5625 50.3125 C34.5725 49.8175 34.5725 49.8175 33.5625 49.3125 C33.98402344 48.9 34.40554688 48.4875 34.83984375 48.0625 C39.14630972 43.52297823 40.45613788 40.58786484 40.5625 34.3125 C40.2325 33.6525 39.9025 32.9925 39.5625 32.3125 C37.18875139 31.97824265 37.18875139 31.97824265 34.5625 32.3125 C32.92573743 34.2725281 32.92573743 34.2725281 31.5625 36.3125 C30.5725 36.3125 29.5825 36.3125 28.5625 36.3125 C28.38976562 35.67183594 28.21703125 35.03117187 28.0390625 34.37109375 C25.81512604 27.52585814 23.04879535 24.74246799 17.02734375 20.94921875 C10.53226896 16.6363244 7.04605528 10.11005698 3.5625 3.3125 C1.08983235 3.65694881 1.08983235 3.65694881 -1.4375 4.3125 C-1.7675 4.9725 -2.0975 5.6325 -2.4375 6.3125 C-3.0975 5.9825 -3.7575 5.6525 -4.4375 5.3125 C-5.30375 5.5290625 -5.30375 5.5290625 -6.1875 5.75 C-8.98016395 6.44816599 -11.57034701 6.37766257 -14.4375 6.3125 C-16.24992323 10.3313515 -17.77251617 13.92360675 -18.4375 18.3125 C-19.4275 17.9825 -20.4175 17.6525 -21.4375 17.3125 C-19.7875 13.0225 -18.1375 8.7325 -16.4375 4.3125 C-15.365 4.168125 -14.2925 4.02375 -13.1875 3.875 C-8.15855702 3.12065855 -4.55858107 0.41441646 0 0 Z " fill="#231A17" transform="translate(265.4375,68.6875)"/>
<path d="M0 0 C-3.42195557 2.03901989 -6.35312644 2.38968787 -10.29956055 2.68603516 C-11.57997726 2.78598785 -12.86039398 2.88594055 -14.17961121 2.98892212 C-15.58194848 3.08941513 -16.98431873 3.18944897 -18.38671875 3.2890625 C-19.84572329 3.3978311 -21.30469189 3.50708279 -22.7636261 3.61679077 C-25.83577218 3.84580005 -28.90829168 4.06859018 -31.98120117 4.28710938 C-35.84114902 4.56211355 -39.69972834 4.85266901 -43.55817986 5.14783096 C-61.39744226 6.50451272 -79.09530638 7.38904415 -97 7 C-97 6.67 -97 6.34 -97 6 C-87.53230144 5.2323015 -78.06440545 4.46709542 -68.59626198 3.7049036 C-64.19786727 3.3507547 -59.79954015 2.99580907 -55.40136719 2.63891602 C-51.14155022 2.29328159 -46.88155627 1.94990521 -42.62144089 1.60796928 C-41.01184223 1.47840047 -39.4023043 1.34807436 -37.79283524 1.21690559 C-29.23842745 0.52026964 -20.68134942 -0.1224326 -12.11474609 -0.65063477 C-11.35979166 -0.7013082 -10.60483723 -0.75198164 -9.82700539 -0.80419064 C-6.37239295 -1.00507325 -3.29860253 -1.15306446 0 0 Z " fill="#100C0A" transform="translate(365,328)"/>
<path d="M0 0 C0.66 0 1.32 0 2 0 C7.28997997 36.56935466 7.28997997 36.56935466 8 49.25 C8.05341553 50.03141357 8.10683105 50.81282715 8.16186523 51.61791992 C8.40224781 57.64612904 7.43994953 63.99456685 3.54101562 68.79711914 C-2.73736848 74.96664751 -12.32696667 78.40865682 -21 79 C-18.34237583 75.65871164 -15.2391728 74.93304644 -11.25 73.6875 C-4.65195148 71.41771678 0.9510517 69.1534613 4.15234375 62.6640625 C9.11345952 47.07198435 3.02552271 24.67236796 0.38037109 8.95727539 C-0.00798014 5.93795671 -0.06509826 3.0406547 0 0 Z " fill="#090706" transform="translate(385,250)"/>
<path d="M0 0 C0.66 0 1.32 0 2 0 C3.23188834 5.11760951 4.45841256 10.23646737 5.68041992 15.35644531 C6.09503743 17.09050416 6.51100693 18.82424042 6.9284668 20.55761719 C9.01901361 29.24181405 11.04127088 37.90028059 12.58984375 46.69921875 C13.61608793 52.37836478 14.96727699 57.52123671 17.25 62.8125 C20.12516019 69.62451944 20.12516019 69.62451944 19 73 C16.43198425 69.14797637 15.03777583 65.13819404 13.4375 60.8125 C13.12103516 59.98685547 12.80457031 59.16121094 12.47851562 58.31054688 C11.01998342 54.38087094 9.86534387 50.80987124 9.5078125 46.62109375 C8.81321519 41.66808063 7.02892775 40.50760204 3.27734375 37.54296875 C-0.02090125 35.30830876 -3.36266517 33.62381019 -7 32 C-4 31 -4 31 -1.84375 31.890625 C-0.68359375 32.56351563 -0.68359375 32.56351563 0.5 33.25 C1.2734375 33.68828125 2.046875 34.1265625 2.84375 34.578125 C4.85182033 35.90228732 6.33670643 37.2807874 8 39 C6.89711525 33.92458862 5.73506197 28.87117759 4.4921875 23.828125 C4.22792969 22.75175781 3.96367187 21.67539063 3.69140625 20.56640625 C3.14306159 18.33892006 2.59092159 16.11236505 2.03515625 13.88671875 C1.77347656 12.81550781 1.51179687 11.74429688 1.2421875 10.640625 C0.88423096 9.19478027 0.88423096 9.19478027 0.51904297 7.71972656 C0.01378388 5.07222595 -0.09715342 2.68730031 0 0 Z " fill="#130E0C" transform="translate(180,134)"/>
<path d="M0 0 C0 0.33 0 0.66 0 1 C-6.27 1.99 -12.54 2.98 -19 4 C-18.67 4.99 -18.34 5.98 -18 7 C-10.08 7 -2.16 7 6 7 C6 7.66 6 8.32 6 9 C-4.07373377 14.27223449 -10.14858577 15.21523385 -21 12 C-23.33215844 11.92596322 -25.66860788 11.90484114 -28 12 C-28.33 12.99 -28.66 13.98 -29 15 C-28.67 13.35 -28.34 11.7 -28 10 C-25.69 9.34 -23.38 8.68 -21 8 C-20.67 6.35 -20.34 4.7 -20 3 C-6.57994924 -1.74175127 -6.57994924 -1.74175127 0 0 Z M-11.3125 9.5 C-12.91544922 9.63921875 -12.91544922 9.63921875 -14.55078125 9.78125 C-15.35902344 9.8534375 -16.16726562 9.925625 -17 10 C-12.95398061 12.69734626 -9.74576236 12.43218852 -5 12 C-2.06919326 11.13346586 -2.06919326 11.13346586 0 10 C0 9.67 0 9.34 0 9 C-3.80285642 8.94355686 -7.52462996 9.16700044 -11.3125 9.5 Z " fill="#16110E" transform="translate(243,302)"/>
<path d="M0 0 C4.60898726 2.08308335 7.64574224 5.27799251 11.1875 8.8125 C12.14946289 9.73772461 12.14946289 9.73772461 13.13085938 10.68164062 C15.7092504 13.24369549 17.70368496 15.315272 19.15625 18.671875 C18.86806256 22.96586781 15.81586908 24.96494944 12.82421875 27.7734375 C7.83150155 31.70960459 1.52467605 36 -5 36 C-5 38.64 -5 41.28 -5 44 C-5.33 44 -5.66 44 -6 44 C-6 40.7 -6 37.4 -6 34 C-4.68 33.62875 -3.36 33.2575 -2 32.875 C2.46391546 31.41049777 5.67337598 29.28251616 9.2734375 26.3046875 C11 25 11 25 14 24 C13.61355168 17.90184546 11.90345948 14.82417329 8.125 10.3125 C7.67769531 9.75755859 7.23039063 9.20261719 6.76953125 8.63085938 C5.52032249 7.08132462 4.26048838 5.54037318 3 4 C1.99136326 2.67318815 0.98688068 1.34307271 0 0 Z " fill="#100B08" transform="translate(218,255)"/>
<path d="M0 0 C0.33 1.32 0.66 2.64 1 4 C-1.00093188 6.00093188 -2.59331584 7.58121239 -5 9 C-9.31630244 8.92684233 -11.40422381 8.39718413 -15 6 C-14.8125 4.125 -14.8125 4.125 -14 2 C-9.68702099 -0.69561188 -4.90290403 -0.19227075 0 0 Z " fill="#39302D" transform="translate(274,118)"/>
<path d="M0 0 C1.98 0.66 3.96 1.32 6 2 C6 2.66 6 3.32 6 4 C12.05677259 7.0283863 22.51280636 3.96488361 29 2.9375 C36.02740766 1.86187638 42.90497393 1.80591114 50 2 C50 2.33 50 2.66 50 3 C49.29359375 3.02578125 48.5871875 3.0515625 47.859375 3.078125 C39.80404468 3.52339451 32.19140206 4.83588153 24.33300781 6.62792969 C17.23437368 8.17729116 10.08507513 9.02387371 3 7 C3 6.01 3 5.02 3 4 C2.01 3.67 1.02 3.34 0 3 C0 2.01 0 1.02 0 0 Z " fill="#2A1F1B" transform="translate(231,331)"/>
<path d="M0 0 C2.33236619 2.10160348 3.51649646 3.79571034 4.53515625 6.7578125 C4.78716797 7.46550781 5.03917969 8.17320312 5.29882812 8.90234375 C5.55083984 9.63582031 5.80285156 10.36929688 6.0625 11.125 C7.44059185 16.41136414 7.44059185 16.41136414 11 20 C11.6328125 22.72265625 11.6328125 22.72265625 12.125 26.0625 C12.37636719 27.71958984 12.37636719 27.71958984 12.6328125 29.41015625 C12.75398437 30.26480469 12.87515625 31.11945313 13 32 C18.10385794 32.31899112 21.53618966 31.65871465 26.203125 29.55859375 C28 29 28 29 31 30 C25.17581519 33.3435135 19.83101863 35.38091182 13 35 C10.47318138 32.47318138 9.85030707 30.22421552 8.65234375 26.85546875 C8.21212891 25.62119141 7.77191406 24.38691406 7.31835938 23.11523438 C7.09172607 22.47030029 6.86509277 21.82536621 6.6315918 21.16088867 C5.94296244 19.20303038 5.24469703 17.24882032 4.54492188 15.29492188 C0.83525821 4.83051087 0.83525821 4.83051087 0 0 Z " fill="#0C0704" transform="translate(199,206)"/>
<path d="M0 0 C0.66 0 1.32 0 2 0 C0.63252467 4.10242599 -2.17958009 5.69034519 -5.5625 8.125 C-6.23289307 8.61000977 -6.90328613 9.09501953 -7.59399414 9.59472656 C-21.27730616 19.30515642 -36.72729226 27.66479987 -53 32 C-53 31.34 -53 30.68 -53 30 C-52.47269287 29.79955078 -51.94538574 29.59910156 -51.40209961 29.39257812 C-32.80870834 22.27402312 -14.3339608 14.3339608 0 0 Z " fill="#0E0602" transform="translate(330,266)"/>
<path d="M0 0 C-3.33753824 1.96723796 -6.14630726 2.37824612 -9.98828125 2.66796875 C-11.75123535 2.80162842 -11.75123535 2.80162842 -13.54980469 2.93798828 C-14.79149414 3.02032715 -16.03318359 3.10266602 -17.3125 3.1875 C-18.57094727 3.27499512 -19.82939453 3.36249023 -21.12597656 3.45263672 C-29.86535184 4.00406311 -38.30628548 4.09410693 -47 3 C-47 2.67 -47 2.34 -47 2 C-40.94995565 1.54628471 -34.89937539 1.10093703 -28.84814453 0.66333008 C-26.78970735 0.51328639 -24.73143538 0.36095813 -22.67333984 0.20629883 C-19.7149233 -0.01561809 -16.75600982 -0.22931032 -13.796875 -0.44140625 C-12.87694763 -0.51218887 -11.95702026 -0.5829715 -11.00921631 -0.65589905 C-10.1486261 -0.71603683 -9.28803589 -0.77617462 -8.40136719 -0.83813477 C-7.64635925 -0.89365005 -6.89135132 -0.94916534 -6.11346436 -1.00636292 C-3.91410394 -0.9997414 -2.10237624 -0.62174499 0 0 Z " fill="#221916" transform="translate(365,328)"/>
<path d="M0 0 C0.33 0 0.66 0 1 0 C1.0093457 0.58378418 1.01869141 1.16756836 1.02832031 1.76904297 C0.90153475 16.98636921 0.90153475 16.98636921 6 31 C6.3609375 31.58652344 6.721875 32.17304688 7.09375 32.77734375 C9.79690216 36.51244251 13.03115438 38.32121245 17.1328125 40.140625 C19 41 19 41 22 43 C17.79343448 43.40062529 15.0795408 43.02195922 11.64453125 40.45703125 C5.76790395 35.25042321 0.7375532 29.87120647 -1 22 C-1.19838798 18.13823324 -0.9731836 14.3529364 -0.6875 10.5 C-0.62626953 9.48679687 -0.56503906 8.47359375 -0.50195312 7.4296875 C-0.35000196 4.95171467 -0.18236999 2.47588819 0 0 Z " fill="#0E0A09" transform="translate(246,96)"/>
<path d="M0 0 C0.66 0 1.32 0 2 0 C3.03794709 4.05832394 4.05232981 8.12218093 5.0625 12.1875 C5.35705078 13.33798828 5.65160156 14.48847656 5.95507812 15.67382812 C6.22900391 16.78564453 6.50292969 17.89746094 6.78515625 19.04296875 C7.04176025 20.06414795 7.29836426 21.08532715 7.56274414 22.13745117 C8.01430805 25.0936694 7.77595451 27.13334313 7 30 C4.51943337 25.41496965 3.55767035 20.60603897 2.375 15.5625 C2.14554688 14.62083984 1.91609375 13.67917969 1.6796875 12.70898438 C1.463125 11.79568359 1.2465625 10.88238281 1.0234375 9.94140625 C0.82669434 9.11326416 0.62995117 8.28512207 0.42724609 7.43188477 C-0.0165036 4.90606148 -0.07470723 2.55915021 0 0 Z " fill="#1D1512" transform="translate(180,134)"/>
<path d="M0 0 C0.66 0.99 1.32 1.98 2 3 C-3.27309569 9.27572656 -9.40700714 12.96946338 -17 16 C-17.99 16 -18.98 16 -20 16 C-20 18.64 -20 21.28 -20 24 C-20.33 24 -20.66 24 -21 24 C-21 20.7 -21 17.4 -21 14 C-19.02 13.443125 -19.02 13.443125 -17 12.875 C-12.53608454 11.41049777 -9.32662402 9.28251616 -5.7265625 6.3046875 C-4 5 -4 5 -1 4 C-0.26676204 1.98491642 -0.26676204 1.98491642 0 0 Z " fill="#1E1814" transform="translate(233,275)"/>
<path d="M0 0 C0.98484375 0.00902344 1.9696875 0.01804687 2.984375 0.02734375 C4.10585937 0.04474609 4.10585937 0.04474609 5.25 0.0625 C5.25 0.7225 5.25 1.3825 5.25 2.0625 C-6.08712984 7.80281891 -6.08712984 7.80281891 -12.75 7.0625 C-12.75 6.4025 -12.75 5.7425 -12.75 5.0625 C-9.45 4.4025 -6.15 3.7425 -2.75 3.0625 C-5.06 3.0625 -7.37 3.0625 -9.75 3.0625 C-9.75 2.4025 -9.75 1.7425 -9.75 1.0625 C-6.43929162 0.06140485 -3.44915231 -0.04106134 0 0 Z " fill="#0A0807" transform="translate(243.75,308.9375)"/>
<path d="M0 0 C0.45890625 0.34933594 0.9178125 0.69867188 1.390625 1.05859375 C2.00421875 1.51363281 2.6178125 1.96867188 3.25 2.4375 C3.85328125 2.88996094 4.4565625 3.34242188 5.078125 3.80859375 C7.21844569 5.27066652 7.21844569 5.27066652 11 6 C11.66 11.28 12.32 16.56 13 22 C12.34 22 11.68 22 11 22 C10.66179834 20.4176994 10.32964061 18.83410625 10 17.25 C9.7215625 15.92742187 9.7215625 15.92742187 9.4375 14.578125 C9 12 9 12 9 8 C7.824375 7.5359375 7.824375 7.5359375 6.625 7.0625 C4 6 4 6 2 5 C1.34 5.99 0.68 6.98 0 8 C0 5.36 0 2.72 0 0 Z " fill="#120C0A" transform="translate(162,183)"/>
<path d="M0 0 C-0.57344937 2.86724686 -0.8614515 3.8614515 -3 6 C-6.625 6.125 -6.625 6.125 -10 6 C-10.66 4.68 -11.32 3.36 -12 2 C-7.8803623 0.70756464 -4.33168317 -0.26252625 0 0 Z " fill="#F4F4F4" transform="translate(273,119)"/>
<path d="M0 0 C0.66 0 1.32 0 2 0 C1 3 1 3 -1.0625 4.125 C-3.16788846 5.78385454 -3.16788846 5.78385454 -3.296875 7.9453125 C-3.32909875 12.69831546 -2.79643477 17.32094574 -2 22 C-2.66 22 -3.32 22 -4 22 C-6.19657273 16.78313976 -6.94991264 11.58772141 -6 6 C-3.5625 2.9375 -3.5625 2.9375 -1 1 C-0.67 0.67 -0.34 0.34 0 0 Z " fill="#030202" transform="translate(304,117)"/>
<path d="M0 0 C0.66 0 1.32 0 2 0 C1 3 1 3 -1.4765625 4.3515625 C-7.00608311 6.58806835 -12.02329801 8.59249759 -18 9 C-15.33897762 5.62937165 -11.80969619 4.66271875 -7.875 3.375 C-3.61028963 2.23717208 -3.61028963 2.23717208 0 0 Z " fill="#0F0B09" transform="translate(382,320)"/>
<path d="M0 0 C2 3 2 3 2 6 C1.34 6 0.68 6 0 6 C-0.268125 5.360625 -0.53625 4.72125 -0.8125 4.0625 C-1.88667752 1.66868314 -1.88667752 1.66868314 -5 1 C-5 4.96 -5 8.92 -5 13 C-7.20914 9.68629 -7.22481553 8.6553979 -7.125 4.8125 C-7.10695312 3.91144531 -7.08890625 3.01039063 -7.0703125 2.08203125 C-7.04710937 1.39496094 -7.02390625 0.70789063 -7 0 C-4.27584084 -1.36207958 -2.87220643 -0.86166193 0 0 Z " fill="#070505" transform="translate(179,128)"/>
<path d="M0 0 C-2.96178773 1.67110042 -5.37071192 2.32682752 -8.75 2.625 C-9.94882813 2.73714844 -9.94882813 2.73714844 -11.171875 2.8515625 C-11.77515625 2.90054688 -12.3784375 2.94953125 -13 3 C-12.67 3.99 -12.34 4.98 -12 6 C-12.99 6 -13.98 6 -15 6 C-15 5.01 -15 4.02 -15 3 C-10.12206417 -0.25195722 -5.77608621 -0.11325659 0 0 Z " fill="#050302" transform="translate(163,145)"/>
<path d="M0 0 C0.33 0 0.66 0 1 0 C1.33 7.92 1.66 15.84 2 24 C1.34 24 0.68 24 0 24 C-1.38489368 19.04515817 -0.89120615 14.25410852 -0.5625 9.1875 C-0.51029297 8.30384766 -0.45808594 7.42019531 -0.40429688 6.50976562 C-0.27525381 4.33949592 -0.13840044 2.16969307 0 0 Z " fill="#533E36" transform="translate(246,96)"/>
<path d="M0 0 C0.66 0.66 1.32 1.32 2 2 C-2.95 4.31 -7.9 6.62 -13 9 C-12.67 7.68 -12.34 6.36 -12 5 C-9.27734375 3.515625 -9.27734375 3.515625 -5.9375 2.25 C-4.83277344 1.82203125 -3.72804688 1.3940625 -2.58984375 0.953125 C-1.73519531 0.63859375 -0.88054687 0.3240625 0 0 Z " fill="#170F0B" transform="translate(383,248)"/>
<path d="M0 0 C0.33 0.99 0.66 1.98 1 3 C-1.31 5.31 -3.62 7.62 -6 10 C-6.66 9.34 -7.32 8.68 -8 8 C-6.50260417 6.79557292 -5.00520833 5.59114583 -3.5078125 4.38671875 C-1.74707893 2.87729455 -1.74707893 2.87729455 0 0 Z " fill="#362823" transform="translate(289,123)"/>
<path d="M0 0 C0.33 0.99 0.66 1.98 1 3 C1.66 3 2.32 3 3 3 C3.33 5.31 3.66 7.62 4 10 C3.34 10 2.68 10 2 10 C0.68373308 6.38026598 0 3.90432869 0 0 Z " fill="#281E1A" transform="translate(298,129)"/>
<path d="M0 0 C-4.1795645 2.78637633 -6.14668677 1.79562512 -11 1 C-11 0.67 -11 0.34 -11 0 C-3.57142857 -1.28571429 -3.57142857 -1.28571429 0 0 Z " fill="#392B25" transform="translate(257,336)"/>
<path d="M0 0 C2.475 0.495 2.475 0.495 5 1 C4.01 1.33 3.02 1.66 2 2 C2 3.65 2 5.3 2 7 C0 5 0 5 -0.125 2.375 C-0.08375 1.59125 -0.0425 0.8075 0 0 Z " fill="#543F36" transform="translate(162,163)"/>
</svg>
