<?xml version="1.0" encoding="UTF-8"?>
<svg version="1.1" xmlns="http://www.w3.org/2000/svg" width="900" height="850">
<path d="M0 0 C13.60731185 14.70885614 18.02251957 38.00727747 24.0625 56.5625 C24.6961407 58.50352229 25.3302962 60.44437594 25.96445179 62.38523006 C31.69557189 79.9291632 37.34239621 97.49937328 42.94277954 115.08547974 C49.10492314 134.42557669 55.41276204 153.71674467 61.75 173 C62.10460485 174.07928331 62.10460485 174.07928331 62.46637344 175.18037033 C64.91180698 182.6230911 67.36064149 190.0646635 69.81811523 197.50341797 C71.31525349 202.0355054 72.80222375 206.57064375 74.27758789 211.10986328 C74.89594845 212.99903903 75.51435316 214.88820033 76.1328125 216.77734375 C76.39892838 217.60518875 76.66504425 218.43303375 76.93922424 219.28596497 C80.9554414 231.49304423 88.0965318 241.0555698 99.3671875 247.5078125 C109.0026192 252.20083453 118.15384765 253.99863846 128.8132019 253.9390564 C129.72799509 253.94202654 130.64278828 253.94499667 131.58530247 253.94805682 C134.62187524 253.95563803 137.65825119 253.94922708 140.69482422 253.94287109 C142.88369883 253.94562374 145.07257245 253.94930531 147.26144409 253.95384216 C151.96161119 253.96193148 156.66173078 253.96412833 161.36190414 253.96189499 C168.80113332 253.95905346 176.24026818 253.97344507 183.67947388 253.99087524 C204.16194777 254.03634163 224.64441754 254.06144231 245.1269374 254.06774123 C257.48526646 254.07155802 269.84347761 254.08827844 282.20175946 254.12345374 C289.58963704 254.14362413 296.97723734 254.14605947 304.36513114 254.13517356 C308.96989412 254.13255892 313.57449696 254.146607 318.17921829 254.16525459 C320.30598109 254.17055827 322.43277371 254.1691112 324.55952454 254.16021919 C343.43921036 254.08768051 356.71747585 257.1349085 370.85546875 270.23046875 C381.15632811 281.08346797 383.72066072 294.80244814 383.4609375 309.2578125 C382.90819675 322.00368581 377.06984394 333.35825875 367.875 342.0625 C361.11137134 347.81311923 353.80135756 352.87561347 346.56201172 358.00244141 C342.77621214 360.68901232 339.01278387 363.40633074 335.25 366.125 C334.51072266 366.65834961 333.77144531 367.19169922 333.00976562 367.74121094 C327.54428861 371.69007723 322.11090704 375.68110888 316.6875 379.6875 C308.30801542 385.87761119 299.87642637 391.99224309 291.42138672 398.07861328 C287.67390231 400.77762118 283.93088799 403.48281494 280.1875 406.1875 C275.70139621 409.42881453 271.21445169 412.66891954 266.72265625 415.90234375 C258.92834153 421.51653178 251.162964 427.16635383 243.4375 432.875 C236.92783389 437.68478151 230.38129887 442.43479241 223.78515625 447.125 C216.55402186 452.26822853 209.3663146 457.47160299 202.1875 462.6875 C201.57503418 463.1304541 200.96256836 463.5734082 200.33154297 464.02978516 C186.92978649 473.74347619 178.12697765 483.03175495 174.1875 499.6875 C172.82920339 510.25326626 174.34845625 519.42969902 177.6328125 529.51171875 C177.98887573 530.6354187 178.34493896 531.75911865 178.71179199 532.91687012 C179.85620486 536.51180712 181.0194175 540.10018954 182.1875 543.6875 C182.56348328 544.84819 182.93946655 546.00888 183.32684326 547.20474243 C185.87524286 555.06286716 188.45811698 562.90939694 191.04915619 570.75354767 C193.05175822 576.8207121 195.04554988 582.8907817 197.0390625 588.9609375 C197.37138571 589.97262056 197.37138571 589.97262056 197.71042252 591.00474167 C202.21638265 604.72738344 206.61880352 618.48214778 210.99542236 632.246521 C215.26214236 645.65577736 219.60159102 659.03970987 224 672.40625 C224.25074406 673.16845226 224.50148811 673.93065453 224.75983047 674.71595383 C227.2620414 682.32091803 229.76798587 689.92463267 232.28258896 697.52550888 C233.21687914 700.35115311 234.1489819 703.17751603 235.08068848 706.00401306 C235.51557992 707.3213774 235.9515235 708.63839495 236.38861084 709.95503235 C241.99802293 726.8530789 246.04755264 743.68633641 238.1875 760.6875 C235.78706118 764.89538387 233.29104989 768.95920954 230.1875 772.6875 C229.5275 772.6875 228.8675 772.6875 228.1875 772.6875 C228.1875 773.3475 228.1875 774.0075 228.1875 774.6875 C227.5275 774.6875 226.8675 774.6875 226.1875 774.6875 C226.1875 775.3475 226.1875 776.0075 226.1875 776.6875 C217.00691466 784.41732617 205.99242576 788.48869231 194.1875 789.6875 C193.49011719 789.7596875 192.79273438 789.831875 192.07421875 789.90625 C179.37434327 790.53729971 168.24116714 784.44561468 158.3125 777.25 C157.58272949 776.72776855 156.85295898 776.20553711 156.10107422 775.66748047 C153.79251539 774.01302152 151.48990413 772.35050975 149.1875 770.6875 C147.70860659 769.6259213 146.22944283 768.56471913 144.75 767.50390625 C136.12215796 761.30555799 127.55868 755.02258065 119.0144043 748.7097168 C113.30258609 744.4948457 107.54749701 740.34681543 101.76171875 736.234375 C95.31224489 731.64759787 88.91042607 726.99416647 82.49755859 722.35644531 C80.23569171 720.72231701 77.97173692 719.0911287 75.70703125 717.4609375 C67.19757941 711.33252803 58.73010315 705.15130502 50.29541016 698.92041016 C42.7108116 693.32317826 35.0716167 687.80341373 27.42138672 682.29638672 C24.42481296 680.13819863 21.43109473 677.97607543 18.43823242 675.81274414 C16.94351957 674.73341846 15.4475961 673.65576725 13.95043945 672.57983398 C10.09751572 669.80806426 6.27049139 667.00835681 2.4765625 664.15625 C-11.61737021 653.62211748 -25.69459548 645.73551666 -44.0078125 648.09765625 C-54.33432971 650.26938898 -62.60195537 655.10983505 -70.97265625 661.32617188 C-72.96907589 662.80335286 -74.98244556 664.25495298 -77 665.703125 C-80.05223659 667.89503337 -83.09903026 670.09412784 -86.140625 672.30078125 C-89.18877436 674.51202199 -92.24050446 676.7181052 -95.296875 678.91796875 C-103.00103284 684.46475959 -110.67676717 690.04681473 -118.3125 695.6875 C-126.69198458 701.87761119 -135.12357363 707.99224309 -143.57861328 714.07861328 C-147.32609769 716.77762118 -151.06911201 719.48281494 -154.8125 722.1875 C-159.29860379 725.42881453 -163.78554831 728.66891954 -168.27734375 731.90234375 C-175.98713152 737.45554753 -183.66997803 743.04200327 -191.3125 748.6875 C-199.69645931 754.87890278 -208.11670788 761.01720266 -216.58642578 767.09082031 C-218.09372553 768.17194998 -219.59987808 769.25468054 -221.10498047 770.33886719 C-223.35798761 771.96026617 -225.61577879 773.57477444 -227.875 775.1875 C-228.87394287 775.90800537 -228.87394287 775.90800537 -229.89306641 776.64306641 C-244.18645749 786.79448056 -257.32696446 791.06223624 -274.8125 788.6875 C-287.57723614 785.9457785 -299.31128961 778.77886362 -306.6875 767.9296875 C-314.41663966 755.3376308 -317.37161037 742.1370627 -314.35394287 727.45671082 C-313.74750874 725.23040876 -313.07328384 723.03921135 -312.36328125 720.84375 C-312.10046356 720.00035065 -311.83764587 719.15695129 -311.56686401 718.28799438 C-310.66471494 715.41580896 -309.74115468 712.55122172 -308.8125 709.6875 C-308.47239899 708.63463806 -308.13229797 707.58177612 -307.78189087 706.49700928 C-305.45606731 699.31498604 -303.09805537 692.14374962 -300.72982788 684.97561646 C-298.48821358 678.19062496 -296.25726343 671.40212365 -294.02734375 664.61328125 C-293.69035556 663.58760324 -293.69035556 663.58760324 -293.34655952 662.54120445 C-288.84286711 648.82847143 -284.44281349 635.08368819 -280.07150269 621.32824707 C-275.72880265 607.67359106 -271.30066532 594.0488095 -266.8125 580.44140625 C-266.55212763 579.65156153 -266.29175526 578.8617168 -266.02349281 578.04793739 C-263.41901453 570.14728411 -260.81139246 562.24770389 -258.1909771 554.35232067 C-257.21359331 551.40479336 -256.23966374 548.45613185 -255.26643372 545.50723076 C-254.81332755 544.13709649 -254.35867542 542.76747227 -253.90229797 541.39842415 C-248.25613989 525.15184266 -248.25613989 525.15184266 -246.375 508.1875 C-246.38257324 507.4668335 -246.39014648 506.74616699 -246.39794922 506.00366211 C-246.79548816 492.95887168 -252.73338425 480.81139234 -262.18359375 471.86328125 C-267.68697129 467.30847993 -273.62575928 463.34104641 -279.50390625 459.29052734 C-283.26584785 456.67833313 -286.97775709 453.99809325 -290.6875 451.3125 C-291.4304834 450.77536377 -292.1734668 450.23822754 -292.93896484 449.68481445 C-299.22155319 445.1338873 -305.46454001 440.5299708 -311.7043457 435.9206543 C-319.28893849 430.32322327 -326.92829169 424.80347968 -334.57861328 419.29638672 C-339.07773169 416.05603805 -343.57074119 412.80722298 -348.06494141 409.56005859 C-351.800445 406.86151978 -355.5373148 404.16492047 -359.27734375 401.47265625 C-367.79170681 395.33993321 -376.26466202 389.15517211 -384.70458984 382.92041016 C-393.80139017 376.2072136 -402.97736728 369.60474891 -412.15478516 363.00244141 C-417.38163111 359.24122767 -422.60107347 355.47004813 -427.8125 351.6875 C-428.41916504 351.24889648 -429.02583008 350.81029297 -429.65087891 350.35839844 C-442.38378167 341.12913159 -452.63822484 331.76893811 -455.8125 315.6875 C-457.93970798 301.6302006 -455.93946884 288.35924881 -448.24609375 276.21484375 C-439.99074462 265.04809539 -429.52585682 257.57271697 -415.8125 254.6875 C-412.72387418 254.41368896 -409.65354501 254.41456625 -406.55429077 254.42921448 C-405.64276642 254.42553877 -404.73124208 254.42186307 -403.79209578 254.41807598 C-400.7485467 254.40812436 -397.70518134 254.41224122 -394.66162109 254.41625977 C-392.47481086 254.41187097 -390.28800229 254.40656826 -388.10119629 254.40042114 C-383.39607089 254.38893013 -378.69099048 254.38346236 -373.98585129 254.38253975 C-366.53818429 254.38059655 -359.09061003 254.36252845 -351.64297485 254.34178162 C-341.19379325 254.31401969 -330.74461515 254.29103514 -320.29541016 254.27416992 C-319.63288099 254.27309724 -318.97035183 254.27202456 -318.28774603 254.27091938 C-310.90350243 254.25911042 -303.51925799 254.24890344 -296.13500977 254.24047852 C-281.76141285 254.22395831 -267.38788505 254.20105887 -253.01434004 254.15745777 C-245.61926225 254.13573693 -238.22433564 254.12761846 -230.82922816 254.12985051 C-226.21569764 254.12817721 -221.60226479 254.11408804 -216.98876953 254.09663773 C-214.85920552 254.09106448 -212.72962102 254.0905286 -210.60005569 254.09557533 C-191.80311402 254.13542937 -175.31325522 252.76747923 -161.0078125 239.02636719 C-153.3590809 230.87747387 -149.84687419 221.07846358 -146.5625 210.625 C-146.06437895 209.08104093 -145.56463943 207.5376033 -145.06347656 205.99462891 C-143.93759971 202.52225016 -142.82013459 199.04729419 -141.70703125 195.57080078 C-139.62908599 189.09759385 -137.50323987 182.64040824 -135.375 176.18359375 C-128.14202666 154.22438829 -120.96359583 132.24906663 -113.94662476 110.21981812 C-111.30512426 101.93271601 -108.64837114 93.65049047 -105.99194336 85.36816406 C-105.15776632 82.76496534 -104.32450237 80.16148872 -103.49243164 77.55761719 C-100.82953891 69.22574164 -98.15535619 60.89768321 -95.45815754 52.57684231 C-94.23965717 48.81669485 -93.0264231 45.05505038 -91.82675171 41.28884888 C-90.6960922 37.73997626 -89.55037738 34.19630202 -88.39376068 30.6558075 C-87.76920398 28.73136562 -87.15996565 26.80197298 -86.55133057 24.87243652 C-81.75114617 10.29413556 -73.92722586 -1.42220994 -60.390625 -9.0625 C-40.29061018 -18.80796173 -16.24947552 -15.13992983 0 0 Z " fill="#E6C361" transform="translate(486.8125,25.3125)"/>
</svg>
